<?xml version="1.0" encoding="utf-8"?>
<!-- Generator: Adobe Illustrator 25.0.0, SVG Export Plug-In . SVG Version: 6.00 Build 0)  -->
<svg version="1.1" id="Layer_1" xmlns="http://www.w3.org/2000/svg" xmlns:xlink="http://www.w3.org/1999/xlink" x="0px" y="0px"
	 viewBox="0 0 37 37" style="enable-background:new 0 0 37 37;" xml:space="preserve">
<style type="text/css">
	.st0{fill:none;stroke:#333333;stroke-width:0.5;stroke-miterlimit:10;}
</style>
<g>
	<line class="st0" x1="18.5" y1="1.1" x2="18.5" y2="14.3"/>
	<line class="st0" x1="18.5" y1="35.9" x2="18.5" y2="22.8"/>
	<line class="st0" x1="35.9" y1="18.5" x2="22.7" y2="18.5"/>
	<path class="st0" d="M16.6,14.7c0.6-0.3,1.2-0.5,1.9-0.5s1.3,0.2,1.9,0.5c0-5,0.6-7.9,1.6-9.6c-0.1-0.4-0.7-2.6-3.5-4
		c-2.9,1.4-3.4,3.6-3.5,4C16,6.8,16.6,9.8,16.6,14.7z"/>
	<path class="st0" d="M15,5.1c-2.3-4.1-6.4-1-6.4-1c6.4,2.1,6.9,9.6,6.9,11.4c0,0,0,0,0,0c0.3-0.3,0.6-0.5,0.9-0.7
		c0,0,0.1,0,0.1-0.1C16.6,9.8,16,6.8,15,5.1z"/>
	<path class="st0" d="M22,5.1c-1,1.7-1.7,4.7-1.6,9.6c0,0,0.1,0,0.1,0.1c0.3,0.2,0.7,0.4,0.9,0.7c0,0,0,0,0,0
		c0-1.8,0.5-9.3,6.9-11.4C28.4,4.1,24.4,1,22,5.1z"/>
	<path class="st0" d="M20.4,22.3c-0.6,0.3-1.2,0.5-1.9,0.5s-1.3-0.2-1.9-0.5c0,5-0.6,7.9-1.6,9.6c0.1,0.4,0.7,2.6,3.5,4
		c2.9-1.4,3.4-3.6,3.5-4C21,30.2,20.4,27.2,20.4,22.3z"/>
	<path class="st0" d="M16.5,22.2c-0.3-0.2-0.7-0.4-0.9-0.7c0,0,0,0,0,0c0,1.8-0.5,9.3-6.9,11.4c0,0,4,3.1,6.4-1
		c1-1.7,1.7-4.7,1.6-9.6C16.6,22.2,16.5,22.2,16.5,22.2z"/>
	<path class="st0" d="M21.5,21.5C21.5,21.5,21.5,21.5,21.5,21.5c-0.3,0.3-0.6,0.5-1,0.7c0,0-0.1,0-0.1,0.1c0,5,0.6,7.9,1.6,9.6
		c2.3,4.1,6.4,1,6.4,1C22,30.8,21.5,23.3,21.5,21.5z"/>
	<path class="st0" d="M21.5,15.5C21.5,15.5,21.5,15.5,21.5,15.5C21.5,15.5,21.5,15.5,21.5,15.5C21.5,15.5,21.5,15.5,21.5,15.5z"/>
	<path class="st0" d="M21.5,21.5C21.5,21.5,21.5,21.5,21.5,21.5C21.5,21.5,21.5,21.5,21.5,21.5C21.5,21.5,21.5,21.5,21.5,21.5z"/>
	<path class="st0" d="M35.9,18.5c-1.4-2.9-3.6-3.4-4-3.5c-1.7,1-4.7,1.7-9.6,1.6c0.3,0.6,0.5,1.2,0.5,1.9c0,0.7-0.2,1.3-0.5,1.9
		c5,0,7.9,0.6,9.6,1.6C32.3,21.9,34.5,21.4,35.9,18.5z"/>
	<path class="st0" d="M32.9,8.6c-2.1,6.4-9.6,6.9-11.4,6.9c0,0,0,0,0,0c0.3,0.3,0.5,0.6,0.7,0.9c0,0,0,0.1,0.1,0.1
		c5,0,7.9-0.6,9.6-1.6C36,12.6,32.9,8.6,32.9,8.6z"/>
	<path class="st0" d="M31.9,22c-1.7-1-4.7-1.7-9.6-1.6c0,0,0,0.1-0.1,0.1c-0.2,0.3-0.4,0.7-0.7,0.9c0,0,0,0,0,0
		c1.8,0,9.3,0.5,11.4,6.9C32.9,28.4,36,24.4,31.9,22z"/>
	<path class="st0" d="M15.5,15.5C15.5,15.5,15.5,15.5,15.5,15.5C15.5,15.5,15.5,15.5,15.5,15.5C15.5,15.5,15.5,15.5,15.5,15.5z"/>
	<path class="st0" d="M15.5,21.5C15.5,21.5,15.5,21.5,15.5,21.5C15.5,21.5,15.5,21.5,15.5,21.5C15.5,21.5,15.5,21.5,15.5,21.5z"/>
	<path class="st0" d="M14.7,20.4c-0.3-0.6-0.5-1.2-0.5-1.9c0-0.7,0.2-1.3,0.5-1.9c-5,0-7.9-0.6-9.6-1.6c-0.4,0.1-2.6,0.7-4,3.5
		c1.4,2.9,3.6,3.4,4,3.5C6.8,21,9.8,20.4,14.7,20.4z"/>
	<path class="st0" d="M15.5,15.5c-1.8,0-9.3-0.5-11.4-6.9c0,0-3.1,4,1,6.4c1.7,1,4.7,1.7,9.6,1.6c0,0,0-0.1,0.1-0.1
		C15,16.1,15.2,15.8,15.5,15.5C15.5,15.5,15.5,15.5,15.5,15.5z"/>
	<path class="st0" d="M14.8,20.5c0,0,0-0.1-0.1-0.1c-5,0-7.9,0.6-9.6,1.6c-4.1,2.3-1,6.4-1,6.4c2.1-6.4,9.6-6.9,11.4-6.9
		c0,0,0,0,0,0C15.2,21.2,15,20.9,14.8,20.5z"/>
	<line class="st0" x1="1.1" y1="18.5" x2="14.3" y2="18.5"/>
</g>
</svg>
