<?xml version="1.0" encoding="utf-8"?>
<!-- Generator: Adobe Illustrator 25.0.0, SVG Export Plug-In . SVG Version: 6.00 Build 0)  -->
<svg version="1.1" id="Layer_1" xmlns="http://www.w3.org/2000/svg" xmlns:xlink="http://www.w3.org/1999/xlink" x="0px" y="0px"
	 viewBox="0 0 48 48" style="enable-background:new 0 0 48 48;" xml:space="preserve">
<style type="text/css">
	.st0{fill:#676767;}
</style>
<path class="st0" d="M44.1-0.1H3.9c-2.2,0-4,1.8-4,4v40.1c0,2.2,1.8,4,4,4h40.1c2.2,0,4-1.8,4-4V3.9C48.1,1.7,46.3-0.1,44.1-0.1z
	 M33.2,8.5c0-1.1,0.9-2,2-2h6.7v6.6c0,1.1-0.9,2-2,2h-3h-1.7c-1.1,0-2-0.9-2-2v-1.8V8.5z M31.4,27.2c0.2,0.5,0,0.9-0.5,1.4
	c-1.2-1.6-2.8-2.3-4.5-2.9c-0.9-0.3-1.2,0-0.9,0.9c0.5,1.5,1,2.9,2.2,3.9c0.2,0.2,0.7,0.2,0.6,0.7c-0.1,0.3-0.7,0.5-0.9,0.3
	c-1.2-0.6-1.8,0-2.6,0.8c-0.5,0.6-1.2,0.5-1.5-0.1c-0.7-0.9-1.4-1.4-2.5-0.8c-0.3,0.1-0.8,0-1.2-0.5c1.4-1,2.1-2.5,2.6-4.1
	c0.1-0.5,0.6-0.9,0.1-1.3c-0.3-0.3-0.8,0-1.2,0.1c-1.7,0.5-3.2,1.2-4.1,2.6c-0.3-0.1-0.6-0.3-0.5-0.7c0.3-1.3,0.2-2.3-0.9-3.2
	c-0.6-0.5-0.1-1.2,0.3-1.5c0.8-0.6,1.3-1.2,0.7-2.2c-0.3-0.3-0.2-0.9,0.3-1.3c1,1.6,2.6,2.3,4.4,2.9c0.9,0.3,1.4,0.1,0.9-0.9
	c-0.6-1.8-1.2-3.5-2.9-4.5c0.2-0.2,0.5-0.5,0.6-0.3c1.4,0.2,2.6,0.1,3.5-1c0.1-0.2,0.6-0.2,0.6-0.2c1.2,1.4,2.6,1.5,4.4,1.4
	c-1.5,1.2-2.3,2.6-2.8,4.3c-0.1,0.5-0.5,1,0,1.4c0.3,0.3,0.8,0,1.2-0.1c1.6-0.6,3.1-1.2,4.1-2.9c0.2,0.5,0.5,0.7,0.5,0.9
	c-0.5,1.3-0.2,2.3,0.9,3.2c0.6,0.5,0.2,1.2-0.2,1.5C31.4,25.5,30.8,26.1,31.4,27.2z M42.1,42.3H5.9V20.9h2.7c-0.2,1-0.3,2-0.3,3.1
	c0,8.7,7,15.7,15.7,15.7s15.7-7,15.7-15.7c0-1.1-0.1-2.1-0.3-3.1h2.7V42.3z"/>
</svg>
