<?xml version="1.0" encoding="utf-8"?>
<!-- Generator: Adobe Illustrator 25.0.0, SVG Export Plug-In . SVG Version: 6.00 Build 0)  -->
<svg version="1.1" id="Layer_1" xmlns="http://www.w3.org/2000/svg" xmlns:xlink="http://www.w3.org/1999/xlink" x="0px" y="0px"
	 viewBox="0 0 37 37" style="enable-background:new 0 0 37 37;" xml:space="preserve">
<style type="text/css">
	.st0{fill:#333333;}
</style>
<path class="st0" d="M35.9,18.5c-1.4-2.9-3.6-3.4-4-3.5c4.1-2.3,1-6.4,1-6.4c-1.2,3.7-4.2,5.4-6.9,6.2c-2,0.6-3.8,0.7-4.5,0.7
	c0-0.6,0.1-1.9,0.4-3.5c0.7-2.9,2.3-6.6,6.5-7.9c0,0-4-3.1-6.4,1c-0.1-0.4-0.7-2.6-3.5-4c-2.9,1.4-3.4,3.6-3.5,4
	c-2.3-4.1-6.4-1-6.4-1c4.2,1.4,5.8,5,6.5,7.9c0.3,1.5,0.4,2.8,0.4,3.5c-0.6,0-1.9-0.1-3.5-0.4c-2.9-0.7-6.6-2.3-7.9-6.5
	c0,0-3.1,4,1,6.4c-0.4,0.1-2.6,0.7-4,3.5c1.4,2.9,3.6,3.4,4,3.5c-4.1,2.3-1,6.4-1,6.4c1.4-4.2,5-5.8,7.9-6.5
	c1.5-0.3,2.8-0.4,3.5-0.4c0,1-0.2,3.4-1.2,5.9c-1,2.3-2.6,4.5-5.7,5.5c0,0,4,3.1,6.4-1c0.1,0.4,0.7,2.6,3.5,4c2.9-1.4,3.4-3.6,3.5-4
	c2.3,4.1,6.4,1,6.4,1c-3.1-1-4.8-3.2-5.7-5.5c-1-2.5-1.2-4.9-1.2-5.9c0.8,0,2.6,0.1,4.5,0.7c2.7,0.8,5.7,2.5,6.9,6.2
	c0,0,3.1-4-1-6.4C32.3,21.9,34.5,21.4,35.9,18.5z"/>
</svg>
