<?xml version="1.0" encoding="utf-8"?>
<!-- Generator: Adobe Illustrator 25.0.0, SVG Export Plug-In . SVG Version: 6.00 Build 0)  -->
<svg version="1.1" id="Layer_1" xmlns="http://www.w3.org/2000/svg" xmlns:xlink="http://www.w3.org/1999/xlink" x="0px" y="0px"
	 viewBox="0 0 149.1 43.1" style="enable-background:new 0 0 149.1 43.1;" xml:space="preserve">
<style type="text/css">
	.st0{fill:#030404;}
</style>
<g id="Group_4" transform="translate(0 -35.032)">
	<path id="Path_23" class="st0" d="M30,75.1c0-0.2-0.4-0.5-0.6-0.7c0.1-0.2,0.2-0.3,0.2-0.5c0-0.2-0.1-0.4-0.3-0.5
		c-0.1,0.4-0.4,0.7-0.8,0.8c-0.3,0.2-0.7,0.3-1,0.3c0,0-0.1-0.1-0.1-0.1c0.1-0.3,0.2-0.7,0.4-1c0.2-0.4,0.5-0.8,0.8-0.8
		c-0.1-0.2-0.3-0.3-0.5-0.3c-0.2,0-0.4,0.1-0.5,0.2c0-0.1-0.5-0.6-0.7-0.6s-0.5,0.4-0.7,0.6c-0.2-0.1-0.3-0.2-0.5-0.2
		c-0.2,0-0.4,0.1-0.4,0.3c0.4,0.1,0.7,0.4,0.8,0.8c0.2,0.3,0.3,0.7,0.3,1c0,0-0.1,0.1-0.1,0.1c-0.3-0.1-0.7-0.2-1-0.4
		c-0.4-0.2-0.8-0.5-0.8-0.8c-0.2,0.1-0.3,0.3-0.3,0.5c0,0.2,0.1,0.4,0.2,0.5c-0.1,0-0.6,0.5-0.6,0.7s0.4,0.5,0.6,0.7
		c-0.1,0.2-0.2,0.3-0.2,0.5c0,0.2,0.1,0.4,0.3,0.5c0.1-0.4,0.4-0.7,0.8-0.8c0.3-0.2,0.7-0.3,1-0.3c0,0,0.1,0.1,0.1,0.1
		c-0.1,0.3-0.2,0.7-0.4,1c-0.2,0.4-0.5,0.8-0.8,0.8c0.1,0.2,0.3,0.3,0.5,0.3c0.2,0,0.4-0.1,0.5-0.2c0,0.1,0.5,0.6,0.7,0.6
		s0.5-0.4,0.7-0.6c0.2,0.1,0.3,0.2,0.5,0.2c0.2,0,0.4-0.1,0.4-0.3c-0.4-0.1-0.7-0.4-0.8-0.8c-0.2-0.3-0.3-0.6-0.3-1
		c0,0,0.1-0.1,0.1-0.1c0.3,0.1,0.7,0.2,1,0.4c0.4,0.2,0.8,0.5,0.8,0.8c0.2-0.1,0.3-0.3,0.3-0.5c0-0.2-0.1-0.4-0.2-0.5
		C29.5,75.7,30.1,75.3,30,75.1"/>
	<path id="Path_52" class="st0" d="M30,38.1c0-0.2-0.4-0.5-0.6-0.7c0.1-0.2,0.2-0.3,0.2-0.5c0-0.2-0.1-0.4-0.3-0.5
		c-0.1,0.4-0.4,0.7-0.8,0.8c-0.3,0.2-0.7,0.3-1,0.3c0,0-0.1-0.1-0.1-0.1c0.1-0.3,0.2-0.7,0.4-1c0.2-0.4,0.5-0.8,0.8-0.8
		c-0.1-0.2-0.3-0.3-0.5-0.3c-0.2,0-0.4,0.1-0.5,0.2c0-0.1-0.5-0.6-0.7-0.6s-0.5,0.4-0.7,0.6c-0.2-0.1-0.3-0.2-0.5-0.2
		c-0.2,0-0.4,0.1-0.4,0.3c0.4,0.1,0.7,0.4,0.8,0.8c0.2,0.3,0.3,0.7,0.3,1c0,0-0.1,0.1-0.1,0.1c-0.3-0.1-0.7-0.2-1-0.4
		c-0.4-0.2-0.8-0.5-0.8-0.8c-0.2,0.1-0.3,0.3-0.3,0.5c0,0.2,0.1,0.4,0.2,0.5c-0.1,0-0.6,0.5-0.6,0.7s0.4,0.5,0.6,0.7
		c-0.1,0.2-0.2,0.3-0.2,0.5c0,0.2,0.1,0.4,0.3,0.5c0.1-0.4,0.4-0.7,0.8-0.8c0.3-0.2,0.7-0.3,1-0.3c0,0,0.1,0.1,0.1,0.1
		c-0.1,0.3-0.2,0.7-0.4,1c-0.2,0.4-0.5,0.8-0.8,0.8c0.1,0.2,0.3,0.3,0.5,0.3c0.2,0,0.4-0.1,0.5-0.2c0,0.1,0.5,0.6,0.7,0.6
		s0.5-0.4,0.7-0.6c0.2,0.1,0.3,0.2,0.5,0.2c0.2,0,0.4-0.1,0.4-0.3c-0.4-0.1-0.7-0.4-0.8-0.8c-0.2-0.3-0.3-0.6-0.3-1
		c0,0,0.1-0.1,0.1-0.1c0.3,0.1,0.7,0.2,1,0.4c0.4,0.2,0.8,0.5,0.8,0.8c0.2-0.1,0.3-0.3,0.3-0.5c0-0.2-0.1-0.4-0.2-0.5
		C29.5,38.7,30.1,38.3,30,38.1"/>
	<path id="Path_24" class="st0" d="M53,75.1c0-0.2-0.4-0.5-0.6-0.7c0.1-0.2,0.2-0.3,0.2-0.5c0-0.2-0.1-0.4-0.3-0.5
		c-0.1,0.4-0.4,0.7-0.8,0.8c-0.3,0.2-0.7,0.3-1,0.3c0,0-0.1-0.1-0.1-0.1c0.1-0.3,0.2-0.7,0.4-1c0.2-0.4,0.5-0.8,0.8-0.8
		c-0.1-0.2-0.3-0.3-0.5-0.3c-0.2,0-0.4,0.1-0.5,0.2c0-0.1-0.5-0.6-0.7-0.6s-0.5,0.4-0.7,0.6c-0.2-0.1-0.3-0.2-0.5-0.2
		c-0.2,0-0.4,0.1-0.4,0.3c0.4,0.1,0.7,0.4,0.8,0.8c0.2,0.3,0.3,0.7,0.3,1c0,0-0.1,0.1-0.1,0.1c-0.3-0.1-0.7-0.2-1-0.4
		c-0.4-0.2-0.8-0.5-0.8-0.8c-0.2,0.1-0.3,0.3-0.3,0.5c0,0.2,0.1,0.4,0.2,0.5c-0.1,0-0.6,0.5-0.6,0.7s0.4,0.5,0.6,0.7
		c-0.1,0.2-0.2,0.3-0.2,0.5c0,0.2,0.1,0.4,0.3,0.5c0.1-0.4,0.4-0.7,0.8-0.8c0.3-0.2,0.7-0.3,1-0.3c0,0,0.1,0.1,0.1,0.1
		c-0.1,0.3-0.2,0.7-0.4,1c-0.2,0.4-0.5,0.8-0.8,0.8c0.1,0.2,0.3,0.3,0.5,0.3c0.2,0,0.4-0.1,0.5-0.2c0,0.1,0.5,0.6,0.7,0.6
		s0.5-0.4,0.7-0.6c0.2,0.1,0.3,0.2,0.5,0.2c0.2,0,0.4-0.1,0.4-0.3c-0.4-0.1-0.7-0.4-0.8-0.8c-0.2-0.3-0.3-0.6-0.3-1
		c0,0,0.1-0.1,0.1-0.1c0.3,0.1,0.7,0.2,1,0.4c0.4,0.2,0.8,0.5,0.8,0.8c0.2-0.1,0.3-0.3,0.3-0.5c0-0.2-0.1-0.4-0.2-0.5
		C52.5,75.7,53.1,75.3,53,75.1"/>
	<path id="Path_49" class="st0" d="M53,38.1c0-0.2-0.4-0.5-0.6-0.7c0.1-0.2,0.2-0.3,0.2-0.5c0-0.2-0.1-0.4-0.3-0.5
		c-0.1,0.4-0.4,0.7-0.8,0.8c-0.3,0.2-0.7,0.3-1,0.3c0,0-0.1-0.1-0.1-0.1c0.1-0.3,0.2-0.7,0.4-1c0.2-0.4,0.5-0.8,0.8-0.8
		c-0.1-0.2-0.3-0.3-0.5-0.3c-0.2,0-0.4,0.1-0.5,0.2c0-0.1-0.5-0.6-0.7-0.6s-0.5,0.4-0.7,0.6c-0.2-0.1-0.3-0.2-0.5-0.2
		c-0.2,0-0.4,0.1-0.4,0.3c0.4,0.1,0.7,0.4,0.8,0.8c0.2,0.3,0.3,0.7,0.3,1c0,0-0.1,0.1-0.1,0.1c-0.3-0.1-0.7-0.2-1-0.4
		c-0.4-0.2-0.8-0.5-0.8-0.8c-0.2,0.1-0.3,0.3-0.3,0.5c0,0.2,0.1,0.4,0.2,0.5c-0.1,0-0.6,0.5-0.6,0.7s0.4,0.5,0.6,0.7
		c-0.1,0.2-0.2,0.3-0.2,0.5c0,0.2,0.1,0.4,0.3,0.5c0.1-0.4,0.4-0.7,0.8-0.8c0.3-0.2,0.7-0.3,1-0.3c0,0,0.1,0.1,0.1,0.1
		c-0.1,0.3-0.2,0.7-0.4,1c-0.2,0.4-0.5,0.8-0.8,0.8c0.1,0.2,0.3,0.3,0.5,0.3c0.2,0,0.4-0.1,0.5-0.2c0,0.1,0.5,0.6,0.7,0.6
		s0.5-0.4,0.7-0.6c0.2,0.1,0.3,0.2,0.5,0.2c0.2,0,0.4-0.1,0.4-0.3c-0.4-0.1-0.7-0.4-0.8-0.8c-0.2-0.3-0.3-0.6-0.3-1
		c0,0,0.1-0.1,0.1-0.1c0.3,0.1,0.7,0.2,1,0.4c0.4,0.2,0.8,0.5,0.8,0.8c0.2-0.1,0.3-0.3,0.3-0.5c0-0.2-0.1-0.4-0.2-0.5
		C52.5,38.7,53.1,38.3,53,38.1"/>
	<path id="Path_25" class="st0" d="M77,75.1c0-0.2-0.4-0.5-0.6-0.7c0.1-0.2,0.2-0.3,0.2-0.5c0-0.2-0.1-0.4-0.3-0.5
		c-0.1,0.4-0.4,0.7-0.8,0.8c-0.3,0.2-0.7,0.3-1,0.3c0,0-0.1-0.1-0.1-0.1c0.1-0.3,0.2-0.7,0.4-1c0.2-0.4,0.5-0.8,0.8-0.8
		c-0.1-0.2-0.3-0.3-0.5-0.3c-0.2,0-0.4,0.1-0.5,0.2c0-0.1-0.5-0.6-0.7-0.6s-0.5,0.4-0.7,0.6c-0.2-0.1-0.3-0.2-0.5-0.2
		c-0.2,0-0.4,0.1-0.4,0.3c0.4,0.1,0.7,0.4,0.8,0.8c0.2,0.3,0.3,0.7,0.3,1c0,0-0.1,0.1-0.1,0.1c-0.3-0.1-0.7-0.2-1-0.4
		c-0.4-0.2-0.8-0.5-0.8-0.8c-0.2,0.1-0.3,0.3-0.3,0.5c0,0.2,0.1,0.4,0.2,0.5c-0.1,0-0.6,0.5-0.6,0.7s0.4,0.5,0.6,0.7
		c-0.1,0.2-0.2,0.3-0.2,0.5c0,0.2,0.1,0.4,0.3,0.5c0.1-0.4,0.4-0.7,0.8-0.8c0.3-0.2,0.7-0.3,1-0.3c0,0,0.1,0.1,0.1,0.1
		c-0.1,0.3-0.2,0.7-0.4,1c-0.2,0.4-0.5,0.8-0.8,0.8c0.1,0.2,0.3,0.3,0.5,0.3c0.2,0,0.4-0.1,0.5-0.2c0,0.1,0.5,0.6,0.7,0.6
		s0.5-0.4,0.7-0.6c0.2,0.1,0.3,0.2,0.5,0.2c0.2,0,0.4-0.1,0.4-0.3c-0.4-0.1-0.7-0.4-0.8-0.8c-0.2-0.3-0.3-0.6-0.3-1
		c0,0,0.1-0.1,0.1-0.1c0.3,0.1,0.7,0.2,1,0.4c0.4,0.2,0.8,0.5,0.8,0.8c0.2-0.1,0.3-0.3,0.3-0.5c0-0.2-0.1-0.4-0.2-0.5
		C76.5,75.7,77.1,75.3,77,75.1"/>
	<path id="Path_46" class="st0" d="M77,38.1c0-0.2-0.4-0.5-0.6-0.7c0.1-0.2,0.2-0.3,0.2-0.5c0-0.2-0.1-0.4-0.3-0.5
		c-0.1,0.4-0.4,0.7-0.8,0.8c-0.3,0.2-0.7,0.3-1,0.3c0,0-0.1-0.1-0.1-0.1c0.1-0.3,0.2-0.7,0.4-1c0.2-0.4,0.5-0.8,0.8-0.8
		c-0.1-0.2-0.3-0.3-0.5-0.3c-0.2,0-0.4,0.1-0.5,0.2c0-0.1-0.5-0.6-0.7-0.6s-0.5,0.4-0.7,0.6c-0.2-0.1-0.3-0.2-0.5-0.2
		c-0.2,0-0.4,0.1-0.4,0.3c0.4,0.1,0.7,0.4,0.8,0.8c0.2,0.3,0.3,0.7,0.3,1c0,0-0.1,0.1-0.1,0.1c-0.3-0.1-0.7-0.2-1-0.4
		c-0.4-0.2-0.8-0.5-0.8-0.8c-0.2,0.1-0.3,0.3-0.3,0.5c0,0.2,0.1,0.4,0.2,0.5c-0.1,0-0.6,0.5-0.6,0.7s0.4,0.5,0.6,0.7
		c-0.1,0.2-0.2,0.3-0.2,0.5c0,0.2,0.1,0.4,0.3,0.5c0.1-0.4,0.4-0.7,0.8-0.8c0.3-0.2,0.7-0.3,1-0.3c0,0,0.1,0.1,0.1,0.1
		c-0.1,0.3-0.2,0.7-0.4,1c-0.2,0.4-0.5,0.8-0.8,0.8c0.1,0.2,0.3,0.3,0.5,0.3c0.2,0,0.4-0.1,0.5-0.2c0,0.1,0.5,0.6,0.7,0.6
		s0.5-0.4,0.7-0.6c0.2,0.1,0.3,0.2,0.5,0.2c0.2,0,0.4-0.1,0.4-0.3c-0.4-0.1-0.7-0.4-0.8-0.8c-0.2-0.3-0.3-0.6-0.3-1
		c0,0,0.1-0.1,0.1-0.1c0.3,0.1,0.7,0.2,1,0.4c0.4,0.2,0.8,0.5,0.8,0.8c0.2-0.1,0.3-0.3,0.3-0.5c0-0.2-0.1-0.4-0.2-0.5
		C76.5,38.7,77.1,38.3,77,38.1"/>
	<path id="Path_26" class="st0" d="M101,75.1c0-0.2-0.4-0.5-0.6-0.7c0.1-0.2,0.2-0.3,0.2-0.5c0-0.2-0.1-0.4-0.3-0.5
		c-0.1,0.4-0.4,0.7-0.8,0.8c-0.3,0.2-0.7,0.3-1,0.3c0,0-0.1-0.1-0.1-0.1c0.1-0.3,0.2-0.7,0.4-1c0.2-0.4,0.5-0.8,0.8-0.8
		c-0.1-0.2-0.3-0.3-0.5-0.3c-0.2,0-0.4,0.1-0.5,0.2c0-0.1-0.5-0.6-0.7-0.6s-0.5,0.4-0.7,0.6c-0.2-0.1-0.3-0.2-0.5-0.2
		c-0.2,0-0.4,0.1-0.4,0.3c0.4,0.1,0.7,0.4,0.8,0.8c0.2,0.3,0.3,0.7,0.3,1c0,0-0.1,0.1-0.1,0.1c-0.3-0.1-0.7-0.2-1-0.4
		c-0.4-0.2-0.8-0.5-0.8-0.8c-0.2,0.1-0.3,0.3-0.3,0.5c0,0.2,0.1,0.4,0.2,0.5c-0.1,0-0.6,0.5-0.6,0.7s0.4,0.5,0.6,0.7
		c-0.1,0.2-0.2,0.3-0.2,0.5c0,0.2,0.1,0.4,0.3,0.5c0.1-0.4,0.4-0.7,0.8-0.8c0.3-0.2,0.7-0.3,1-0.3c0,0,0.1,0.1,0.1,0.1
		c-0.1,0.3-0.2,0.7-0.4,1c-0.2,0.4-0.5,0.8-0.8,0.8c0.1,0.2,0.3,0.3,0.5,0.3c0.2,0,0.4-0.1,0.5-0.2c0,0.1,0.5,0.6,0.7,0.6
		s0.5-0.4,0.7-0.6c0.2,0.1,0.3,0.2,0.5,0.2c0.2,0,0.4-0.1,0.4-0.3c-0.4-0.1-0.7-0.4-0.8-0.8c-0.2-0.3-0.3-0.6-0.3-1
		c0,0,0.1-0.1,0.1-0.1c0.3,0.1,0.7,0.2,1,0.4c0.4,0.2,0.8,0.5,0.8,0.8c0.2-0.1,0.3-0.3,0.3-0.5c0-0.2-0.1-0.4-0.2-0.5
		C100.5,75.7,101.1,75.3,101,75.1"/>
	<path id="Path_43" class="st0" d="M101,38.1c0-0.2-0.4-0.5-0.6-0.7c0.1-0.2,0.2-0.3,0.2-0.5c0-0.2-0.1-0.4-0.3-0.5
		c-0.1,0.4-0.4,0.7-0.8,0.8c-0.3,0.2-0.7,0.3-1,0.3c0,0-0.1-0.1-0.1-0.1c0.1-0.3,0.2-0.7,0.4-1c0.2-0.4,0.5-0.8,0.8-0.8
		c-0.1-0.2-0.3-0.3-0.5-0.3c-0.2,0-0.4,0.1-0.5,0.2c0-0.1-0.5-0.6-0.7-0.6s-0.5,0.4-0.7,0.6c-0.2-0.1-0.3-0.2-0.5-0.2
		c-0.2,0-0.4,0.1-0.4,0.3c0.4,0.1,0.7,0.4,0.8,0.8c0.2,0.3,0.3,0.7,0.3,1c0,0-0.1,0.1-0.1,0.1c-0.3-0.1-0.7-0.2-1-0.4
		c-0.4-0.2-0.8-0.5-0.8-0.8c-0.2,0.1-0.3,0.3-0.3,0.5c0,0.2,0.1,0.4,0.2,0.5c-0.1,0-0.6,0.5-0.6,0.7s0.4,0.5,0.6,0.7
		c-0.1,0.2-0.2,0.3-0.2,0.5c0,0.2,0.1,0.4,0.3,0.5c0.1-0.4,0.4-0.7,0.8-0.8c0.3-0.2,0.7-0.3,1-0.3c0,0,0.1,0.1,0.1,0.1
		c-0.1,0.3-0.2,0.7-0.4,1c-0.2,0.4-0.5,0.8-0.8,0.8c0.1,0.2,0.3,0.3,0.5,0.3c0.2,0,0.4-0.1,0.5-0.2c0,0.1,0.5,0.6,0.7,0.6
		s0.5-0.4,0.7-0.6c0.2,0.1,0.3,0.2,0.5,0.2c0.2,0,0.4-0.1,0.4-0.3c-0.4-0.1-0.7-0.4-0.8-0.8c-0.2-0.3-0.3-0.6-0.3-1
		c0,0,0.1-0.1,0.1-0.1c0.3,0.1,0.7,0.2,1,0.4c0.4,0.2,0.8,0.5,0.8,0.8c0.2-0.1,0.3-0.3,0.3-0.5c0-0.2-0.1-0.4-0.2-0.5
		C100.5,38.7,101.1,38.3,101,38.1"/>
	<path id="Path_27" class="st0" d="M125,75.1c0-0.2-0.4-0.5-0.6-0.7c0.1-0.2,0.2-0.3,0.2-0.5c0-0.2-0.1-0.4-0.3-0.5
		c-0.1,0.4-0.4,0.7-0.8,0.8c-0.3,0.2-0.7,0.3-1,0.3c0,0-0.1-0.1-0.1-0.1c0.1-0.3,0.2-0.7,0.4-1c0.2-0.4,0.5-0.8,0.8-0.8
		c-0.1-0.2-0.3-0.3-0.5-0.3c-0.2,0-0.4,0.1-0.5,0.2c0-0.1-0.5-0.6-0.7-0.6s-0.5,0.4-0.7,0.6c-0.2-0.1-0.3-0.2-0.5-0.2
		c-0.2,0-0.4,0.1-0.4,0.3c0.4,0.1,0.7,0.4,0.8,0.8c0.2,0.3,0.3,0.7,0.3,1c0,0-0.1,0.1-0.1,0.1c-0.3-0.1-0.7-0.2-1-0.4
		c-0.4-0.2-0.8-0.5-0.8-0.8c-0.2,0.1-0.3,0.3-0.3,0.5c0,0.2,0.1,0.4,0.2,0.5c-0.1,0-0.6,0.5-0.6,0.7s0.4,0.5,0.6,0.7
		c-0.1,0.2-0.2,0.3-0.2,0.5c0,0.2,0.1,0.4,0.3,0.5c0.1-0.4,0.4-0.7,0.8-0.8c0.3-0.2,0.7-0.3,1-0.3c0,0,0.1,0.1,0.1,0.1
		c-0.1,0.3-0.2,0.7-0.4,1c-0.2,0.4-0.5,0.8-0.8,0.8c0.1,0.2,0.3,0.3,0.5,0.3c0.2,0,0.4-0.1,0.5-0.2c0,0.1,0.5,0.6,0.7,0.6
		s0.5-0.4,0.7-0.6c0.2,0.1,0.3,0.2,0.5,0.2c0.2,0,0.4-0.1,0.4-0.3c-0.4-0.1-0.7-0.4-0.8-0.8c-0.2-0.3-0.3-0.6-0.3-1
		c0,0,0.1-0.1,0.1-0.1c0.3,0.1,0.7,0.2,1,0.4c0.4,0.2,0.8,0.5,0.8,0.8c0.2-0.1,0.3-0.3,0.3-0.5c0-0.2-0.1-0.4-0.2-0.5
		C124.5,75.7,125.1,75.3,125,75.1"/>
	<path id="Path_40" class="st0" d="M125,38.1c0-0.2-0.4-0.5-0.6-0.7c0.1-0.2,0.2-0.3,0.2-0.5c0-0.2-0.1-0.4-0.3-0.5
		c-0.1,0.4-0.4,0.7-0.8,0.8c-0.3,0.2-0.7,0.3-1,0.3c0,0-0.1-0.1-0.1-0.1c0.1-0.3,0.2-0.7,0.4-1c0.2-0.4,0.5-0.8,0.8-0.8
		c-0.1-0.2-0.3-0.3-0.5-0.3c-0.2,0-0.4,0.1-0.5,0.2c0-0.1-0.5-0.6-0.7-0.6s-0.5,0.4-0.7,0.6c-0.2-0.1-0.3-0.2-0.5-0.2
		c-0.2,0-0.4,0.1-0.4,0.3c0.4,0.1,0.7,0.4,0.8,0.8c0.2,0.3,0.3,0.7,0.3,1c0,0-0.1,0.1-0.1,0.1c-0.3-0.1-0.7-0.2-1-0.4
		c-0.4-0.2-0.8-0.5-0.8-0.8c-0.2,0.1-0.3,0.3-0.3,0.5c0,0.2,0.1,0.4,0.2,0.5c-0.1,0-0.6,0.5-0.6,0.7s0.4,0.5,0.6,0.7
		c-0.1,0.2-0.2,0.3-0.2,0.5c0,0.2,0.1,0.4,0.3,0.5c0.1-0.4,0.4-0.7,0.8-0.8c0.3-0.2,0.7-0.3,1-0.3c0,0,0.1,0.1,0.1,0.1
		c-0.1,0.3-0.2,0.7-0.4,1c-0.2,0.4-0.5,0.8-0.8,0.8c0.1,0.2,0.3,0.3,0.5,0.3c0.2,0,0.4-0.1,0.5-0.2c0,0.1,0.5,0.6,0.7,0.6
		s0.5-0.4,0.7-0.6c0.2,0.1,0.3,0.2,0.5,0.2c0.2,0,0.4-0.1,0.4-0.3c-0.4-0.1-0.7-0.4-0.8-0.8c-0.2-0.3-0.3-0.6-0.3-1
		c0,0,0.1-0.1,0.1-0.1c0.3,0.1,0.7,0.2,1,0.4c0.4,0.2,0.8,0.5,0.8,0.8c0.2-0.1,0.3-0.3,0.3-0.5c0-0.2-0.1-0.4-0.2-0.5
		C124.5,38.7,125.1,38.3,125,38.1"/>
	<path id="Path_28" class="st0" d="M14,75.1c0-0.2-0.4-0.5-0.6-0.7c0.1-0.2,0.2-0.3,0.2-0.5c0-0.2-0.1-0.4-0.3-0.5
		c-0.1,0.4-0.4,0.7-0.8,0.8c-0.3,0.2-0.7,0.3-1,0.3c0,0-0.1-0.1-0.1-0.1c0.1-0.3,0.2-0.7,0.4-1c0.2-0.4,0.5-0.8,0.8-0.8
		c-0.1-0.2-0.3-0.3-0.5-0.3c-0.2,0-0.4,0.1-0.5,0.2c0-0.1-0.5-0.6-0.7-0.6s-0.5,0.4-0.7,0.6c-0.2-0.1-0.3-0.2-0.5-0.2
		c-0.2,0-0.4,0.1-0.4,0.3c0.4,0.1,0.7,0.4,0.8,0.8c0.2,0.3,0.3,0.7,0.3,1c0,0-0.1,0.1-0.1,0.1c-0.3-0.1-0.7-0.2-1-0.4
		c-0.4-0.2-0.8-0.5-0.8-0.8c-0.2,0.1-0.3,0.3-0.3,0.5c0,0.2,0.1,0.4,0.2,0.5c-0.1,0-0.6,0.5-0.6,0.7s0.4,0.5,0.6,0.7
		c-0.1,0.2-0.2,0.3-0.2,0.5c0,0.2,0.1,0.4,0.3,0.5c0.1-0.4,0.4-0.7,0.8-0.8c0.3-0.2,0.7-0.3,1-0.3c0,0,0.1,0.1,0.1,0.1
		c-0.1,0.3-0.2,0.7-0.4,1C10,77,9.7,77.4,9.4,77.4c0.1,0.2,0.3,0.3,0.5,0.3c0.2,0,0.4-0.1,0.5-0.2c0,0.1,0.5,0.6,0.7,0.6
		s0.5-0.4,0.7-0.6c0.2,0.1,0.3,0.2,0.5,0.2c0.2,0,0.4-0.1,0.4-0.3c-0.4-0.1-0.7-0.4-0.8-0.8c-0.2-0.3-0.3-0.6-0.3-1
		c0,0,0.1-0.1,0.1-0.1c0.3,0.1,0.7,0.2,1,0.4c0.4,0.2,0.8,0.5,0.8,0.8c0.2-0.1,0.3-0.3,0.3-0.5c0-0.2-0.1-0.4-0.2-0.5
		C13.5,75.7,14.1,75.3,14,75.1"/>
	<path id="Path_54" class="st0" d="M14,38.1c0-0.2-0.4-0.5-0.6-0.7c0.1-0.2,0.2-0.3,0.2-0.5c0-0.2-0.1-0.4-0.3-0.5
		c-0.1,0.4-0.4,0.7-0.8,0.8c-0.3,0.2-0.7,0.3-1,0.3c0,0-0.1-0.1-0.1-0.1c0.1-0.3,0.2-0.7,0.4-1c0.2-0.4,0.5-0.8,0.8-0.8
		c-0.1-0.2-0.3-0.3-0.5-0.3c-0.2,0-0.4,0.1-0.5,0.2c0-0.1-0.5-0.6-0.7-0.6s-0.5,0.4-0.7,0.6c-0.2-0.1-0.3-0.2-0.5-0.2
		c-0.2,0-0.4,0.1-0.4,0.3c0.4,0.1,0.7,0.4,0.8,0.8c0.2,0.3,0.3,0.7,0.3,1c0,0-0.1,0.1-0.1,0.1c-0.3-0.1-0.7-0.2-1-0.4
		c-0.4-0.2-0.8-0.5-0.8-0.8c-0.2,0.1-0.3,0.3-0.3,0.5c0,0.2,0.1,0.4,0.2,0.5c-0.1,0-0.6,0.5-0.6,0.7s0.4,0.5,0.6,0.7
		c-0.1,0.2-0.2,0.3-0.2,0.5c0,0.2,0.1,0.4,0.3,0.5c0.1-0.4,0.4-0.7,0.8-0.8c0.3-0.2,0.7-0.3,1-0.3c0,0,0.1,0.1,0.1,0.1
		c-0.1,0.3-0.2,0.7-0.4,1C10,40,9.7,40.4,9.4,40.4c0.1,0.2,0.3,0.3,0.5,0.3c0.2,0,0.4-0.1,0.5-0.2c0,0.1,0.5,0.6,0.7,0.6
		s0.5-0.4,0.7-0.6c0.2,0.1,0.3,0.2,0.5,0.2c0.2,0,0.4-0.1,0.4-0.3c-0.4-0.1-0.7-0.4-0.8-0.8c-0.2-0.3-0.3-0.6-0.3-1
		c0,0,0.1-0.1,0.1-0.1c0.3,0.1,0.7,0.2,1,0.4c0.4,0.2,0.8,0.5,0.8,0.8c0.2-0.1,0.3-0.3,0.3-0.5c0-0.2-0.1-0.4-0.2-0.5
		C13.5,38.7,14.1,38.3,14,38.1"/>
	<path id="Path_29" class="st0" d="M38,75.1c0-0.2-0.4-0.5-0.6-0.7c0.1-0.2,0.2-0.3,0.2-0.5c0-0.2-0.1-0.4-0.3-0.5
		c-0.1,0.4-0.4,0.7-0.8,0.8c-0.3,0.2-0.7,0.3-1,0.3c0,0-0.1-0.1-0.1-0.1c0.1-0.3,0.2-0.7,0.4-1c0.2-0.4,0.5-0.8,0.8-0.8
		c-0.1-0.2-0.3-0.3-0.5-0.3c-0.2,0-0.4,0.1-0.5,0.2c0-0.1-0.5-0.6-0.7-0.6s-0.5,0.4-0.7,0.6c-0.2-0.1-0.3-0.2-0.5-0.2
		c-0.2,0-0.4,0.1-0.4,0.3c0.4,0.1,0.7,0.4,0.8,0.8c0.2,0.3,0.3,0.7,0.3,1c0,0-0.1,0.1-0.1,0.1c-0.3-0.1-0.7-0.2-1-0.4
		c-0.4-0.2-0.8-0.5-0.8-0.8c-0.2,0.1-0.3,0.3-0.3,0.5c0,0.2,0.1,0.4,0.2,0.5c-0.1,0-0.6,0.5-0.6,0.7s0.4,0.5,0.6,0.7
		c-0.1,0.2-0.2,0.3-0.2,0.5c0,0.2,0.1,0.4,0.3,0.5c0.1-0.4,0.4-0.7,0.8-0.8c0.3-0.2,0.7-0.3,1-0.3c0,0,0.1,0.1,0.1,0.1
		c-0.1,0.3-0.2,0.7-0.4,1c-0.2,0.4-0.5,0.8-0.8,0.8c0.1,0.2,0.3,0.3,0.5,0.3c0.2,0,0.4-0.1,0.5-0.2c0,0.1,0.5,0.6,0.7,0.6
		s0.5-0.4,0.7-0.6c0.2,0.1,0.3,0.2,0.5,0.2c0.2,0,0.4-0.1,0.4-0.3c-0.4-0.1-0.7-0.4-0.8-0.8c-0.2-0.3-0.3-0.6-0.3-1
		c0,0,0.1-0.1,0.1-0.1c0.3,0.1,0.7,0.2,1,0.4c0.4,0.2,0.8,0.5,0.8,0.8c0.2-0.1,0.3-0.3,0.3-0.5c0-0.2-0.1-0.4-0.2-0.5
		C37.5,75.7,38.1,75.3,38,75.1"/>
	<path id="Path_51" class="st0" d="M38,38.1c0-0.2-0.4-0.5-0.6-0.7c0.1-0.2,0.2-0.3,0.2-0.5c0-0.2-0.1-0.4-0.3-0.5
		c-0.1,0.4-0.4,0.7-0.8,0.8c-0.3,0.2-0.7,0.3-1,0.3c0,0-0.1-0.1-0.1-0.1c0.1-0.3,0.2-0.7,0.4-1c0.2-0.4,0.5-0.8,0.8-0.8
		c-0.1-0.2-0.3-0.3-0.5-0.3c-0.2,0-0.4,0.1-0.5,0.2c0-0.1-0.5-0.6-0.7-0.6s-0.5,0.4-0.7,0.6c-0.2-0.1-0.3-0.2-0.5-0.2
		c-0.2,0-0.4,0.1-0.4,0.3c0.4,0.1,0.7,0.4,0.8,0.8c0.2,0.3,0.3,0.7,0.3,1c0,0-0.1,0.1-0.1,0.1c-0.3-0.1-0.7-0.2-1-0.4
		c-0.4-0.2-0.8-0.5-0.8-0.8c-0.2,0.1-0.3,0.3-0.3,0.5c0,0.2,0.1,0.4,0.2,0.5c-0.1,0-0.6,0.5-0.6,0.7s0.4,0.5,0.6,0.7
		c-0.1,0.2-0.2,0.3-0.2,0.5c0,0.2,0.1,0.4,0.3,0.5c0.1-0.4,0.4-0.7,0.8-0.8c0.3-0.2,0.7-0.3,1-0.3c0,0,0.1,0.1,0.1,0.1
		c-0.1,0.3-0.2,0.7-0.4,1c-0.2,0.4-0.5,0.8-0.8,0.8c0.1,0.2,0.3,0.3,0.5,0.3c0.2,0,0.4-0.1,0.5-0.2c0,0.1,0.5,0.6,0.7,0.6
		s0.5-0.4,0.7-0.6c0.2,0.1,0.3,0.2,0.5,0.2c0.2,0,0.4-0.1,0.4-0.3c-0.4-0.1-0.7-0.4-0.8-0.8c-0.2-0.3-0.3-0.6-0.3-1
		c0,0,0.1-0.1,0.1-0.1c0.3,0.1,0.7,0.2,1,0.4c0.4,0.2,0.8,0.5,0.8,0.8c0.2-0.1,0.3-0.3,0.3-0.5c0-0.2-0.1-0.4-0.2-0.5
		C37.5,38.7,38.1,38.3,38,38.1"/>
	<path id="Path_30" class="st0" d="M61,75.1c0-0.2-0.4-0.5-0.6-0.7c0.1-0.2,0.2-0.3,0.2-0.5c0-0.2-0.1-0.4-0.3-0.5
		c-0.1,0.4-0.4,0.7-0.8,0.8c-0.3,0.2-0.7,0.3-1,0.3c0,0-0.1-0.1-0.1-0.1c0.1-0.3,0.2-0.7,0.4-1c0.2-0.4,0.5-0.8,0.8-0.8
		c-0.1-0.2-0.3-0.3-0.5-0.3c-0.2,0-0.4,0.1-0.5,0.2c0-0.1-0.5-0.6-0.7-0.6s-0.5,0.4-0.7,0.6c-0.2-0.1-0.3-0.2-0.5-0.2
		c-0.2,0-0.4,0.1-0.4,0.3c0.4,0.1,0.7,0.4,0.8,0.8c0.2,0.3,0.3,0.7,0.3,1c0,0-0.1,0.1-0.1,0.1c-0.3-0.1-0.7-0.2-1-0.4
		c-0.4-0.2-0.8-0.5-0.8-0.8c-0.2,0.1-0.3,0.3-0.3,0.5c0,0.2,0.1,0.4,0.2,0.5c-0.1,0-0.6,0.5-0.6,0.7s0.4,0.5,0.6,0.7
		c-0.1,0.2-0.2,0.3-0.2,0.5c0,0.2,0.1,0.4,0.3,0.5c0.1-0.4,0.4-0.7,0.8-0.8c0.3-0.2,0.7-0.3,1-0.3c0,0,0.1,0.1,0.1,0.1
		c-0.1,0.3-0.2,0.7-0.4,1c-0.2,0.4-0.5,0.8-0.8,0.8c0.1,0.2,0.3,0.3,0.5,0.3c0.2,0,0.4-0.1,0.5-0.2c0,0.1,0.5,0.6,0.7,0.6
		s0.5-0.4,0.7-0.6c0.2,0.1,0.3,0.2,0.5,0.2c0.2,0,0.4-0.1,0.4-0.3c-0.4-0.1-0.7-0.4-0.8-0.8c-0.2-0.3-0.3-0.6-0.3-1
		c0,0,0.1-0.1,0.1-0.1c0.3,0.1,0.7,0.2,1,0.4c0.4,0.2,0.8,0.5,0.8,0.8c0.2-0.1,0.3-0.3,0.3-0.5c0-0.2-0.1-0.4-0.2-0.5
		C60.5,75.7,61.1,75.3,61,75.1"/>
	<path id="Path_48" class="st0" d="M61,38.1c0-0.2-0.4-0.5-0.6-0.7c0.1-0.2,0.2-0.3,0.2-0.5c0-0.2-0.1-0.4-0.3-0.5
		c-0.1,0.4-0.4,0.7-0.8,0.8c-0.3,0.2-0.7,0.3-1,0.3c0,0-0.1-0.1-0.1-0.1c0.1-0.3,0.2-0.7,0.4-1c0.2-0.4,0.5-0.8,0.8-0.8
		c-0.1-0.2-0.3-0.3-0.5-0.3c-0.2,0-0.4,0.1-0.5,0.2c0-0.1-0.5-0.6-0.7-0.6s-0.5,0.4-0.7,0.6c-0.2-0.1-0.3-0.2-0.5-0.2
		c-0.2,0-0.4,0.1-0.4,0.3c0.4,0.1,0.7,0.4,0.8,0.8c0.2,0.3,0.3,0.7,0.3,1c0,0-0.1,0.1-0.1,0.1c-0.3-0.1-0.7-0.2-1-0.4
		c-0.4-0.2-0.8-0.5-0.8-0.8c-0.2,0.1-0.3,0.3-0.3,0.5c0,0.2,0.1,0.4,0.2,0.5c-0.1,0-0.6,0.5-0.6,0.7s0.4,0.5,0.6,0.7
		c-0.1,0.2-0.2,0.3-0.2,0.5c0,0.2,0.1,0.4,0.3,0.5c0.1-0.4,0.4-0.7,0.8-0.8c0.3-0.2,0.7-0.3,1-0.3c0,0,0.1,0.1,0.1,0.1
		c-0.1,0.3-0.2,0.7-0.4,1c-0.2,0.4-0.5,0.8-0.8,0.8c0.1,0.2,0.3,0.3,0.5,0.3c0.2,0,0.4-0.1,0.5-0.2c0,0.1,0.5,0.6,0.7,0.6
		s0.5-0.4,0.7-0.6c0.2,0.1,0.3,0.2,0.5,0.2c0.2,0,0.4-0.1,0.4-0.3c-0.4-0.1-0.7-0.4-0.8-0.8c-0.2-0.3-0.3-0.6-0.3-1
		c0,0,0.1-0.1,0.1-0.1c0.3,0.1,0.7,0.2,1,0.4c0.4,0.2,0.8,0.5,0.8,0.8c0.2-0.1,0.3-0.3,0.3-0.5c0-0.2-0.1-0.4-0.2-0.5
		C60.5,38.7,61.1,38.3,61,38.1"/>
	<path id="Path_31" class="st0" d="M85,75.1c0-0.2-0.4-0.5-0.6-0.7c0.1-0.2,0.2-0.3,0.2-0.5c0-0.2-0.1-0.4-0.3-0.5
		c-0.1,0.4-0.4,0.7-0.8,0.8c-0.3,0.2-0.7,0.3-1,0.3c0,0-0.1-0.1-0.1-0.1c0.1-0.3,0.2-0.7,0.4-1c0.2-0.4,0.5-0.8,0.8-0.8
		c-0.1-0.2-0.3-0.3-0.5-0.3c-0.2,0-0.4,0.1-0.5,0.2c0-0.1-0.5-0.6-0.7-0.6s-0.5,0.4-0.7,0.6c-0.2-0.1-0.3-0.2-0.5-0.2
		c-0.2,0-0.4,0.1-0.4,0.3c0.4,0.1,0.7,0.4,0.8,0.8c0.2,0.3,0.3,0.7,0.3,1c0,0-0.1,0.1-0.1,0.1c-0.3-0.1-0.7-0.2-1-0.4
		c-0.4-0.2-0.8-0.5-0.8-0.8c-0.2,0.1-0.3,0.3-0.3,0.5c0,0.2,0.1,0.4,0.2,0.5c-0.1,0-0.6,0.5-0.6,0.7s0.4,0.5,0.6,0.7
		c-0.1,0.2-0.2,0.3-0.2,0.5c0,0.2,0.1,0.4,0.3,0.5c0.1-0.4,0.4-0.7,0.8-0.8c0.3-0.2,0.7-0.3,1-0.3c0,0,0.1,0.1,0.1,0.1
		c-0.1,0.3-0.2,0.7-0.4,1c-0.2,0.4-0.5,0.8-0.8,0.8c0.1,0.2,0.3,0.3,0.5,0.3c0.2,0,0.4-0.1,0.5-0.2c0,0.1,0.5,0.6,0.7,0.6
		s0.5-0.4,0.7-0.6c0.2,0.1,0.3,0.2,0.5,0.2c0.2,0,0.4-0.1,0.4-0.3c-0.4-0.1-0.7-0.4-0.8-0.8c-0.2-0.3-0.3-0.6-0.3-1
		c0,0,0.1-0.1,0.1-0.1c0.3,0.1,0.7,0.2,1,0.4c0.4,0.2,0.8,0.5,0.8,0.8c0.2-0.1,0.3-0.3,0.3-0.5c0-0.2-0.1-0.4-0.2-0.5
		C84.5,75.7,85.1,75.3,85,75.1"/>
	<path id="Path_45" class="st0" d="M85,38.1c0-0.2-0.4-0.5-0.6-0.7c0.1-0.2,0.2-0.3,0.2-0.5c0-0.2-0.1-0.4-0.3-0.5
		c-0.1,0.4-0.4,0.7-0.8,0.8c-0.3,0.2-0.7,0.3-1,0.3c0,0-0.1-0.1-0.1-0.1c0.1-0.3,0.2-0.7,0.4-1c0.2-0.4,0.5-0.8,0.8-0.8
		c-0.1-0.2-0.3-0.3-0.5-0.3c-0.2,0-0.4,0.1-0.5,0.2c0-0.1-0.5-0.6-0.7-0.6s-0.5,0.4-0.7,0.6c-0.2-0.1-0.3-0.2-0.5-0.2
		c-0.2,0-0.4,0.1-0.4,0.3c0.4,0.1,0.7,0.4,0.8,0.8c0.2,0.3,0.3,0.7,0.3,1c0,0-0.1,0.1-0.1,0.1c-0.3-0.1-0.7-0.2-1-0.4
		c-0.4-0.2-0.8-0.5-0.8-0.8c-0.2,0.1-0.3,0.3-0.3,0.5c0,0.2,0.1,0.4,0.2,0.5c-0.1,0-0.6,0.5-0.6,0.7s0.4,0.5,0.6,0.7
		c-0.1,0.2-0.2,0.3-0.2,0.5c0,0.2,0.1,0.4,0.3,0.5c0.1-0.4,0.4-0.7,0.8-0.8c0.3-0.2,0.7-0.3,1-0.3c0,0,0.1,0.1,0.1,0.1
		c-0.1,0.3-0.2,0.7-0.4,1c-0.2,0.4-0.5,0.8-0.8,0.8c0.1,0.2,0.3,0.3,0.5,0.3c0.2,0,0.4-0.1,0.5-0.2c0,0.1,0.5,0.6,0.7,0.6
		s0.5-0.4,0.7-0.6c0.2,0.1,0.3,0.2,0.5,0.2c0.2,0,0.4-0.1,0.4-0.3c-0.4-0.1-0.7-0.4-0.8-0.8c-0.2-0.3-0.3-0.6-0.3-1
		c0,0,0.1-0.1,0.1-0.1c0.3,0.1,0.7,0.2,1,0.4c0.4,0.2,0.8,0.5,0.8,0.8c0.2-0.1,0.3-0.3,0.3-0.5c0-0.2-0.1-0.4-0.2-0.5
		C84.5,38.7,85.1,38.3,85,38.1"/>
	<path id="Path_32" class="st0" d="M109,75.1c0-0.2-0.4-0.5-0.6-0.7c0.1-0.2,0.2-0.3,0.2-0.5c0-0.2-0.1-0.4-0.3-0.5
		c-0.1,0.4-0.4,0.7-0.8,0.8c-0.3,0.2-0.7,0.3-1,0.3c0,0-0.1-0.1-0.1-0.1c0.1-0.3,0.2-0.7,0.4-1c0.2-0.4,0.5-0.8,0.8-0.8
		c-0.1-0.2-0.3-0.3-0.5-0.3c-0.2,0-0.4,0.1-0.5,0.2c0-0.1-0.5-0.6-0.7-0.6s-0.5,0.4-0.7,0.6c-0.2-0.1-0.3-0.2-0.5-0.2
		c-0.2,0-0.4,0.1-0.4,0.3c0.4,0.1,0.7,0.4,0.8,0.8c0.2,0.3,0.3,0.7,0.3,1c0,0-0.1,0.1-0.1,0.1c-0.3-0.1-0.7-0.2-1-0.4
		c-0.4-0.2-0.8-0.5-0.8-0.8c-0.2,0.1-0.3,0.3-0.3,0.5c0,0.2,0.1,0.4,0.2,0.5c-0.1,0-0.6,0.5-0.6,0.7s0.4,0.5,0.6,0.7
		c-0.1,0.2-0.2,0.3-0.2,0.5c0,0.2,0.1,0.4,0.3,0.5c0.1-0.4,0.4-0.7,0.8-0.8c0.3-0.2,0.7-0.3,1-0.3c0,0,0.1,0.1,0.1,0.1
		c-0.1,0.3-0.2,0.7-0.4,1c-0.2,0.4-0.5,0.8-0.8,0.8c0.1,0.2,0.3,0.3,0.5,0.3c0.2,0,0.4-0.1,0.5-0.2c0,0.1,0.5,0.6,0.7,0.6
		s0.5-0.4,0.7-0.6c0.2,0.1,0.3,0.2,0.5,0.2c0.2,0,0.4-0.1,0.4-0.3c-0.4-0.1-0.7-0.4-0.8-0.8c-0.2-0.3-0.3-0.6-0.3-1
		c0,0,0.1-0.1,0.1-0.1c0.3,0.1,0.7,0.2,1,0.4c0.4,0.2,0.8,0.5,0.8,0.8c0.2-0.1,0.3-0.3,0.3-0.5c0-0.2-0.1-0.4-0.2-0.5
		C108.5,75.7,109.1,75.3,109,75.1"/>
	<path id="Path_42" class="st0" d="M109,38.1c0-0.2-0.4-0.5-0.6-0.7c0.1-0.2,0.2-0.3,0.2-0.5c0-0.2-0.1-0.4-0.3-0.5
		c-0.1,0.4-0.4,0.7-0.8,0.8c-0.3,0.2-0.7,0.3-1,0.3c0,0-0.1-0.1-0.1-0.1c0.1-0.3,0.2-0.7,0.4-1c0.2-0.4,0.5-0.8,0.8-0.8
		c-0.1-0.2-0.3-0.3-0.5-0.3c-0.2,0-0.4,0.1-0.5,0.2c0-0.1-0.5-0.6-0.7-0.6s-0.5,0.4-0.7,0.6c-0.2-0.1-0.3-0.2-0.5-0.2
		c-0.2,0-0.4,0.1-0.4,0.3c0.4,0.1,0.7,0.4,0.8,0.8c0.2,0.3,0.3,0.7,0.3,1c0,0-0.1,0.1-0.1,0.1c-0.3-0.1-0.7-0.2-1-0.4
		c-0.4-0.2-0.8-0.5-0.8-0.8c-0.2,0.1-0.3,0.3-0.3,0.5c0,0.2,0.1,0.4,0.2,0.5c-0.1,0-0.6,0.5-0.6,0.7s0.4,0.5,0.6,0.7
		c-0.1,0.2-0.2,0.3-0.2,0.5c0,0.2,0.1,0.4,0.3,0.5c0.1-0.4,0.4-0.7,0.8-0.8c0.3-0.2,0.7-0.3,1-0.3c0,0,0.1,0.1,0.1,0.1
		c-0.1,0.3-0.2,0.7-0.4,1c-0.2,0.4-0.5,0.8-0.8,0.8c0.1,0.2,0.3,0.3,0.5,0.3c0.2,0,0.4-0.1,0.5-0.2c0,0.1,0.5,0.6,0.7,0.6
		s0.5-0.4,0.7-0.6c0.2,0.1,0.3,0.2,0.5,0.2c0.2,0,0.4-0.1,0.4-0.3c-0.4-0.1-0.7-0.4-0.8-0.8c-0.2-0.3-0.3-0.6-0.3-1
		c0,0,0.1-0.1,0.1-0.1c0.3,0.1,0.7,0.2,1,0.4c0.4,0.2,0.8,0.5,0.8,0.8c0.2-0.1,0.3-0.3,0.3-0.5c0-0.2-0.1-0.4-0.2-0.5
		C108.5,38.7,109.1,38.3,109,38.1"/>
	<path id="Path_33" class="st0" d="M141,75.1c0-0.2-0.4-0.5-0.6-0.7c0.1-0.2,0.2-0.3,0.2-0.5c0-0.2-0.1-0.4-0.3-0.5
		c-0.1,0.4-0.4,0.7-0.8,0.8c-0.3,0.2-0.7,0.3-1,0.3c0,0-0.1-0.1-0.1-0.1c0.1-0.3,0.2-0.7,0.4-1c0.2-0.4,0.5-0.8,0.8-0.8
		c-0.1-0.2-0.3-0.3-0.5-0.3c-0.2,0-0.4,0.1-0.5,0.2c0-0.1-0.5-0.6-0.7-0.6s-0.5,0.4-0.7,0.6c-0.2-0.1-0.3-0.2-0.5-0.2
		c-0.2,0-0.4,0.1-0.4,0.3c0.4,0.1,0.7,0.4,0.8,0.8c0.2,0.3,0.3,0.7,0.3,1c0,0-0.1,0.1-0.1,0.1c-0.3-0.1-0.7-0.2-1-0.4
		c-0.4-0.2-0.8-0.5-0.8-0.8c-0.2,0.1-0.3,0.3-0.3,0.5c0,0.2,0.1,0.4,0.2,0.5c-0.1,0-0.6,0.5-0.6,0.7s0.4,0.5,0.6,0.7
		c-0.1,0.2-0.2,0.3-0.2,0.5c0,0.2,0.1,0.4,0.3,0.5c0.1-0.4,0.4-0.7,0.8-0.8c0.3-0.2,0.7-0.3,1-0.3c0,0,0.1,0.1,0.1,0.1
		c-0.1,0.3-0.2,0.7-0.4,1c-0.2,0.4-0.5,0.8-0.8,0.8c0.1,0.2,0.3,0.3,0.5,0.3c0.2,0,0.4-0.1,0.5-0.2c0,0.1,0.5,0.6,0.7,0.6
		s0.5-0.4,0.7-0.6c0.2,0.1,0.3,0.2,0.5,0.2c0.2,0,0.4-0.1,0.4-0.3c-0.4-0.1-0.7-0.4-0.8-0.8c-0.2-0.3-0.3-0.6-0.3-1
		c0,0,0.1-0.1,0.1-0.1c0.3,0.1,0.7,0.2,1,0.4c0.4,0.2,0.8,0.5,0.8,0.8c0.2-0.1,0.3-0.3,0.3-0.5c0-0.2-0.1-0.4-0.2-0.5
		C140.5,75.7,141.1,75.3,141,75.1"/>
	<path id="Path_39" class="st0" d="M141,38.1c0-0.2-0.4-0.5-0.6-0.7c0.1-0.2,0.2-0.3,0.2-0.5c0-0.2-0.1-0.4-0.3-0.5
		c-0.1,0.4-0.4,0.7-0.8,0.8c-0.3,0.2-0.7,0.3-1,0.3c0,0-0.1-0.1-0.1-0.1c0.1-0.3,0.2-0.7,0.4-1c0.2-0.4,0.5-0.8,0.8-0.8
		c-0.1-0.2-0.3-0.3-0.5-0.3c-0.2,0-0.4,0.1-0.5,0.2c0-0.1-0.5-0.6-0.7-0.6s-0.5,0.4-0.7,0.6c-0.2-0.1-0.3-0.2-0.5-0.2
		c-0.2,0-0.4,0.1-0.4,0.3c0.4,0.1,0.7,0.4,0.8,0.8c0.2,0.3,0.3,0.7,0.3,1c0,0-0.1,0.1-0.1,0.1c-0.3-0.1-0.7-0.2-1-0.4
		c-0.4-0.2-0.8-0.5-0.8-0.8c-0.2,0.1-0.3,0.3-0.3,0.5c0,0.2,0.1,0.4,0.2,0.5c-0.1,0-0.6,0.5-0.6,0.7s0.4,0.5,0.6,0.7
		c-0.1,0.2-0.2,0.3-0.2,0.5c0,0.2,0.1,0.4,0.3,0.5c0.1-0.4,0.4-0.7,0.8-0.8c0.3-0.2,0.7-0.3,1-0.3c0,0,0.1,0.1,0.1,0.1
		c-0.1,0.3-0.2,0.7-0.4,1c-0.2,0.4-0.5,0.8-0.8,0.8c0.1,0.2,0.3,0.3,0.5,0.3c0.2,0,0.4-0.1,0.5-0.2c0,0.1,0.5,0.6,0.7,0.6
		s0.5-0.4,0.7-0.6c0.2,0.1,0.3,0.2,0.5,0.2c0.2,0,0.4-0.1,0.4-0.3c-0.4-0.1-0.7-0.4-0.8-0.8c-0.2-0.3-0.3-0.6-0.3-1
		c0,0,0.1-0.1,0.1-0.1c0.3,0.1,0.7,0.2,1,0.4c0.4,0.2,0.8,0.5,0.8,0.8c0.2-0.1,0.3-0.3,0.3-0.5c0-0.2-0.1-0.4-0.2-0.5
		C140.5,38.7,141.1,38.3,141,38.1"/>
	<path id="Path_34" class="st0" d="M22,75.1c0-0.2-0.4-0.5-0.6-0.7c0.1-0.2,0.2-0.3,0.2-0.5c0-0.2-0.1-0.4-0.3-0.5
		c-0.1,0.4-0.4,0.7-0.8,0.8c-0.3,0.2-0.7,0.3-1,0.3c0,0-0.1-0.1-0.1-0.1c0.1-0.3,0.2-0.7,0.4-1c0.2-0.4,0.5-0.8,0.8-0.8
		c-0.1-0.2-0.3-0.3-0.5-0.3c-0.2,0-0.4,0.1-0.5,0.2c0-0.1-0.5-0.6-0.7-0.6s-0.5,0.4-0.7,0.6c-0.2-0.1-0.3-0.2-0.5-0.2
		c-0.2,0-0.4,0.1-0.4,0.3c0.4,0.1,0.7,0.4,0.8,0.8c0.2,0.3,0.3,0.7,0.3,1c0,0-0.1,0.1-0.1,0.1c-0.3-0.1-0.7-0.2-1-0.4
		c-0.4-0.2-0.8-0.5-0.8-0.8c-0.2,0.1-0.3,0.3-0.3,0.5c0,0.2,0.1,0.4,0.2,0.5c-0.1,0-0.6,0.5-0.6,0.7s0.4,0.5,0.6,0.7
		c-0.1,0.2-0.2,0.3-0.2,0.5c0,0.2,0.1,0.4,0.3,0.5c0.1-0.4,0.4-0.7,0.8-0.8c0.3-0.2,0.7-0.3,1-0.3c0,0,0.1,0.1,0.1,0.1
		c-0.1,0.3-0.2,0.7-0.4,1c-0.2,0.4-0.5,0.8-0.8,0.8c0.1,0.2,0.3,0.3,0.5,0.3c0.2,0,0.4-0.1,0.5-0.2c0,0.1,0.5,0.6,0.7,0.6
		s0.5-0.4,0.7-0.6c0.2,0.1,0.3,0.2,0.5,0.2c0.2,0,0.4-0.1,0.4-0.3c-0.4-0.1-0.7-0.4-0.8-0.8c-0.2-0.3-0.3-0.6-0.3-1
		c0,0,0.1-0.1,0.1-0.1c0.3,0.1,0.7,0.2,1,0.4c0.4,0.2,0.8,0.5,0.8,0.8c0.2-0.1,0.3-0.3,0.3-0.5c0-0.2-0.1-0.4-0.2-0.5
		C21.5,75.7,22.1,75.3,22,75.1"/>
	<path id="Path_53" class="st0" d="M22,38.1c0-0.2-0.4-0.5-0.6-0.7c0.1-0.2,0.2-0.3,0.2-0.5c0-0.2-0.1-0.4-0.3-0.5
		c-0.1,0.4-0.4,0.7-0.8,0.8c-0.3,0.2-0.7,0.3-1,0.3c0,0-0.1-0.1-0.1-0.1c0.1-0.3,0.2-0.7,0.4-1c0.2-0.4,0.5-0.8,0.8-0.8
		c-0.1-0.2-0.3-0.3-0.5-0.3c-0.2,0-0.4,0.1-0.5,0.2c0-0.1-0.5-0.6-0.7-0.6s-0.5,0.4-0.7,0.6c-0.2-0.1-0.3-0.2-0.5-0.2
		c-0.2,0-0.4,0.1-0.4,0.3c0.4,0.1,0.7,0.4,0.8,0.8c0.2,0.3,0.3,0.7,0.3,1c0,0-0.1,0.1-0.1,0.1c-0.3-0.1-0.7-0.2-1-0.4
		c-0.4-0.2-0.8-0.5-0.8-0.8c-0.2,0.1-0.3,0.3-0.3,0.5c0,0.2,0.1,0.4,0.2,0.5c-0.1,0-0.6,0.5-0.6,0.7s0.4,0.5,0.6,0.7
		c-0.1,0.2-0.2,0.3-0.2,0.5c0,0.2,0.1,0.4,0.3,0.5c0.1-0.4,0.4-0.7,0.8-0.8c0.3-0.2,0.7-0.3,1-0.3c0,0,0.1,0.1,0.1,0.1
		c-0.1,0.3-0.2,0.7-0.4,1c-0.2,0.4-0.5,0.8-0.8,0.8c0.1,0.2,0.3,0.3,0.5,0.3c0.2,0,0.4-0.1,0.5-0.2c0,0.1,0.5,0.6,0.7,0.6
		s0.5-0.4,0.7-0.6c0.2,0.1,0.3,0.2,0.5,0.2c0.2,0,0.4-0.1,0.4-0.3c-0.4-0.1-0.7-0.4-0.8-0.8c-0.2-0.3-0.3-0.6-0.3-1
		c0,0,0.1-0.1,0.1-0.1c0.3,0.1,0.7,0.2,1,0.4c0.4,0.2,0.8,0.5,0.8,0.8c0.2-0.1,0.3-0.3,0.3-0.5c0-0.2-0.1-0.4-0.2-0.5
		C21.5,38.7,22.1,38.3,22,38.1"/>
	<path id="Path_35" class="st0" d="M46,75.1c0-0.2-0.4-0.5-0.6-0.7c0.1-0.2,0.2-0.3,0.2-0.5c0-0.2-0.1-0.4-0.3-0.5
		c-0.1,0.4-0.4,0.7-0.8,0.8c-0.3,0.2-0.7,0.3-1,0.3c0,0-0.1-0.1-0.1-0.1c0.1-0.3,0.2-0.7,0.4-1c0.2-0.4,0.5-0.8,0.8-0.8
		c-0.1-0.2-0.3-0.3-0.5-0.3c-0.2,0-0.4,0.1-0.5,0.2c0-0.1-0.5-0.6-0.7-0.6s-0.5,0.4-0.7,0.6c-0.2-0.1-0.3-0.2-0.5-0.2
		c-0.2,0-0.4,0.1-0.4,0.3c0.4,0.1,0.7,0.4,0.8,0.8c0.2,0.3,0.3,0.7,0.3,1c0,0-0.1,0.1-0.1,0.1c-0.3-0.1-0.7-0.2-1-0.4
		c-0.4-0.2-0.8-0.5-0.8-0.8c-0.2,0.1-0.3,0.3-0.3,0.5c0,0.2,0.1,0.4,0.2,0.5c-0.1,0-0.6,0.5-0.6,0.7s0.4,0.5,0.6,0.7
		c-0.1,0.2-0.2,0.3-0.2,0.5c0,0.2,0.1,0.4,0.3,0.5c0.1-0.4,0.4-0.7,0.8-0.8c0.3-0.2,0.7-0.3,1-0.3c0,0,0.1,0.1,0.1,0.1
		c-0.1,0.3-0.2,0.7-0.4,1c-0.2,0.4-0.5,0.8-0.8,0.8c0.1,0.2,0.3,0.3,0.5,0.3c0.2,0,0.4-0.1,0.5-0.2c0,0.1,0.5,0.6,0.7,0.6
		s0.5-0.4,0.7-0.6c0.2,0.1,0.3,0.2,0.5,0.2c0.2,0,0.4-0.1,0.4-0.3c-0.4-0.1-0.7-0.4-0.8-0.8c-0.2-0.3-0.3-0.6-0.3-1
		c0,0,0.1-0.1,0.1-0.1c0.3,0.1,0.7,0.2,1,0.4c0.4,0.2,0.8,0.5,0.8,0.8c0.2-0.1,0.3-0.3,0.3-0.5c0-0.2-0.1-0.4-0.2-0.5
		C45.5,75.7,46.1,75.3,46,75.1"/>
	<path id="Path_50" class="st0" d="M46,38.1c0-0.2-0.4-0.5-0.6-0.7c0.1-0.2,0.2-0.3,0.2-0.5c0-0.2-0.1-0.4-0.3-0.5
		c-0.1,0.4-0.4,0.7-0.8,0.8c-0.3,0.2-0.7,0.3-1,0.3c0,0-0.1-0.1-0.1-0.1c0.1-0.3,0.2-0.7,0.4-1c0.2-0.4,0.5-0.8,0.8-0.8
		c-0.1-0.2-0.3-0.3-0.5-0.3c-0.2,0-0.4,0.1-0.5,0.2c0-0.1-0.5-0.6-0.7-0.6s-0.5,0.4-0.7,0.6c-0.2-0.1-0.3-0.2-0.5-0.2
		c-0.2,0-0.4,0.1-0.4,0.3c0.4,0.1,0.7,0.4,0.8,0.8c0.2,0.3,0.3,0.7,0.3,1c0,0-0.1,0.1-0.1,0.1c-0.3-0.1-0.7-0.2-1-0.4
		c-0.4-0.2-0.8-0.5-0.8-0.8c-0.2,0.1-0.3,0.3-0.3,0.5c0,0.2,0.1,0.4,0.2,0.5c-0.1,0-0.6,0.5-0.6,0.7s0.4,0.5,0.6,0.7
		c-0.1,0.2-0.2,0.3-0.2,0.5c0,0.2,0.1,0.4,0.3,0.5c0.1-0.4,0.4-0.7,0.8-0.8c0.3-0.2,0.7-0.3,1-0.3c0,0,0.1,0.1,0.1,0.1
		c-0.1,0.3-0.2,0.7-0.4,1c-0.2,0.4-0.5,0.8-0.8,0.8c0.1,0.2,0.3,0.3,0.5,0.3c0.2,0,0.4-0.1,0.5-0.2c0,0.1,0.5,0.6,0.7,0.6
		s0.5-0.4,0.7-0.6c0.2,0.1,0.3,0.2,0.5,0.2c0.2,0,0.4-0.1,0.4-0.3c-0.4-0.1-0.7-0.4-0.8-0.8c-0.2-0.3-0.3-0.6-0.3-1
		c0,0,0.1-0.1,0.1-0.1c0.3,0.1,0.7,0.2,1,0.4c0.4,0.2,0.8,0.5,0.8,0.8c0.2-0.1,0.3-0.3,0.3-0.5c0-0.2-0.1-0.4-0.2-0.5
		C45.5,38.7,46.1,38.3,46,38.1"/>
	<path id="Path_36" class="st0" d="M69,75.1c0-0.2-0.4-0.5-0.6-0.7c0.1-0.2,0.2-0.3,0.2-0.5c0-0.2-0.1-0.4-0.3-0.5
		c-0.1,0.4-0.4,0.7-0.8,0.8c-0.3,0.2-0.7,0.3-1,0.3c0,0-0.1-0.1-0.1-0.1c0.1-0.3,0.2-0.7,0.4-1c0.2-0.4,0.5-0.8,0.8-0.8
		c-0.1-0.2-0.3-0.3-0.5-0.3c-0.2,0-0.4,0.1-0.5,0.2c0-0.1-0.5-0.6-0.7-0.6s-0.5,0.4-0.7,0.6c-0.2-0.1-0.3-0.2-0.5-0.2
		c-0.2,0-0.4,0.1-0.4,0.3c0.4,0.1,0.7,0.4,0.8,0.8c0.2,0.3,0.3,0.7,0.3,1c0,0-0.1,0.1-0.1,0.1c-0.3-0.1-0.7-0.2-1-0.4
		c-0.4-0.2-0.8-0.5-0.8-0.8c-0.2,0.1-0.3,0.3-0.3,0.5c0,0.2,0.1,0.4,0.2,0.5c-0.1,0-0.6,0.5-0.6,0.7s0.4,0.5,0.6,0.7
		c-0.1,0.2-0.2,0.3-0.2,0.5c0,0.2,0.1,0.4,0.3,0.5c0.1-0.4,0.4-0.7,0.8-0.8c0.3-0.2,0.7-0.3,1-0.3c0,0,0.1,0.1,0.1,0.1
		c-0.1,0.3-0.2,0.7-0.4,1c-0.2,0.4-0.5,0.8-0.8,0.8c0.1,0.2,0.3,0.3,0.5,0.3c0.2,0,0.4-0.1,0.5-0.2c0,0.1,0.5,0.6,0.7,0.6
		s0.5-0.4,0.7-0.6c0.2,0.1,0.3,0.2,0.5,0.2c0.2,0,0.4-0.1,0.4-0.3c-0.4-0.1-0.7-0.4-0.8-0.8c-0.2-0.3-0.3-0.6-0.3-1
		c0,0,0.1-0.1,0.1-0.1c0.3,0.1,0.7,0.2,1,0.4c0.4,0.2,0.8,0.5,0.8,0.8c0.2-0.1,0.3-0.3,0.3-0.5c0-0.2-0.1-0.4-0.2-0.5
		C68.5,75.7,69.1,75.3,69,75.1"/>
	<path id="Path_47" class="st0" d="M69,38.1c0-0.2-0.4-0.5-0.6-0.7c0.1-0.2,0.2-0.3,0.2-0.5c0-0.2-0.1-0.4-0.3-0.5
		c-0.1,0.4-0.4,0.7-0.8,0.8c-0.3,0.2-0.7,0.3-1,0.3c0,0-0.1-0.1-0.1-0.1c0.1-0.3,0.2-0.7,0.4-1c0.2-0.4,0.5-0.8,0.8-0.8
		c-0.1-0.2-0.3-0.3-0.5-0.3c-0.2,0-0.4,0.1-0.5,0.2c0-0.1-0.5-0.6-0.7-0.6s-0.5,0.4-0.7,0.6c-0.2-0.1-0.3-0.2-0.5-0.2
		c-0.2,0-0.4,0.1-0.4,0.3c0.4,0.1,0.7,0.4,0.8,0.8c0.2,0.3,0.3,0.7,0.3,1c0,0-0.1,0.1-0.1,0.1c-0.3-0.1-0.7-0.2-1-0.4
		c-0.4-0.2-0.8-0.5-0.8-0.8c-0.2,0.1-0.3,0.3-0.3,0.5c0,0.2,0.1,0.4,0.2,0.5c-0.1,0-0.6,0.5-0.6,0.7s0.4,0.5,0.6,0.7
		c-0.1,0.2-0.2,0.3-0.2,0.5c0,0.2,0.1,0.4,0.3,0.5c0.1-0.4,0.4-0.7,0.8-0.8c0.3-0.2,0.7-0.3,1-0.3c0,0,0.1,0.1,0.1,0.1
		c-0.1,0.3-0.2,0.7-0.4,1c-0.2,0.4-0.5,0.8-0.8,0.8c0.1,0.2,0.3,0.3,0.5,0.3c0.2,0,0.4-0.1,0.5-0.2c0,0.1,0.5,0.6,0.7,0.6
		s0.5-0.4,0.7-0.6c0.2,0.1,0.3,0.2,0.5,0.2c0.2,0,0.4-0.1,0.4-0.3c-0.4-0.1-0.7-0.4-0.8-0.8c-0.2-0.3-0.3-0.6-0.3-1
		c0,0,0.1-0.1,0.1-0.1c0.3,0.1,0.7,0.2,1,0.4c0.4,0.2,0.8,0.5,0.8,0.8c0.2-0.1,0.3-0.3,0.3-0.5c0-0.2-0.1-0.4-0.2-0.5
		C68.5,38.7,69.1,38.3,69,38.1"/>
	<path id="Path_37" class="st0" d="M93,75.1c0-0.2-0.4-0.5-0.6-0.7c0.1-0.2,0.2-0.3,0.2-0.5c0-0.2-0.1-0.4-0.3-0.5
		c-0.1,0.4-0.4,0.7-0.8,0.8c-0.3,0.2-0.7,0.3-1,0.3c0,0-0.1-0.1-0.1-0.1c0.1-0.3,0.2-0.7,0.4-1c0.2-0.4,0.5-0.8,0.8-0.8
		c-0.1-0.2-0.3-0.3-0.5-0.3c-0.2,0-0.4,0.1-0.5,0.2c0-0.1-0.5-0.6-0.7-0.6s-0.5,0.4-0.7,0.6c-0.2-0.1-0.3-0.2-0.5-0.2
		c-0.2,0-0.4,0.1-0.4,0.3c0.4,0.1,0.7,0.4,0.8,0.8c0.2,0.3,0.3,0.7,0.3,1c0,0-0.1,0.1-0.1,0.1c-0.3-0.1-0.7-0.2-1-0.4
		c-0.4-0.2-0.8-0.5-0.8-0.8c-0.2,0.1-0.3,0.3-0.3,0.5c0,0.2,0.1,0.4,0.2,0.5c-0.1,0-0.6,0.5-0.6,0.7s0.4,0.5,0.6,0.7
		c-0.1,0.2-0.2,0.3-0.2,0.5c0,0.2,0.1,0.4,0.3,0.5c0.1-0.4,0.4-0.7,0.8-0.8c0.3-0.2,0.7-0.3,1-0.3c0,0,0.1,0.1,0.1,0.1
		c-0.1,0.3-0.2,0.7-0.4,1c-0.2,0.4-0.5,0.8-0.8,0.8c0.1,0.2,0.3,0.3,0.5,0.3c0.2,0,0.4-0.1,0.5-0.2c0,0.1,0.5,0.6,0.7,0.6
		s0.5-0.4,0.7-0.6c0.2,0.1,0.3,0.2,0.5,0.2c0.2,0,0.4-0.1,0.4-0.3c-0.4-0.1-0.7-0.4-0.8-0.8c-0.2-0.3-0.3-0.6-0.3-1
		c0,0,0.1-0.1,0.1-0.1c0.3,0.1,0.7,0.2,1,0.4c0.4,0.2,0.8,0.5,0.8,0.8c0.2-0.1,0.3-0.3,0.3-0.5c0-0.2-0.1-0.4-0.2-0.5
		C92.5,75.7,93.1,75.3,93,75.1"/>
	<path id="Path_44" class="st0" d="M93,38.1c0-0.2-0.4-0.5-0.6-0.7c0.1-0.2,0.2-0.3,0.2-0.5c0-0.2-0.1-0.4-0.3-0.5
		c-0.1,0.4-0.4,0.7-0.8,0.8c-0.3,0.2-0.7,0.3-1,0.3c0,0-0.1-0.1-0.1-0.1c0.1-0.3,0.2-0.7,0.4-1c0.2-0.4,0.5-0.8,0.8-0.8
		c-0.1-0.2-0.3-0.3-0.5-0.3c-0.2,0-0.4,0.1-0.5,0.2c0-0.1-0.5-0.6-0.7-0.6s-0.5,0.4-0.7,0.6c-0.2-0.1-0.3-0.2-0.5-0.2
		c-0.2,0-0.4,0.1-0.4,0.3c0.4,0.1,0.7,0.4,0.8,0.8c0.2,0.3,0.3,0.7,0.3,1c0,0-0.1,0.1-0.1,0.1c-0.3-0.1-0.7-0.2-1-0.4
		c-0.4-0.2-0.8-0.5-0.8-0.8c-0.2,0.1-0.3,0.3-0.3,0.5c0,0.2,0.1,0.4,0.2,0.5c-0.1,0-0.6,0.5-0.6,0.7s0.4,0.5,0.6,0.7
		c-0.1,0.2-0.2,0.3-0.2,0.5c0,0.2,0.1,0.4,0.3,0.5c0.1-0.4,0.4-0.7,0.8-0.8c0.3-0.2,0.7-0.3,1-0.3c0,0,0.1,0.1,0.1,0.1
		c-0.1,0.3-0.2,0.7-0.4,1c-0.2,0.4-0.5,0.8-0.8,0.8c0.1,0.2,0.3,0.3,0.5,0.3c0.2,0,0.4-0.1,0.5-0.2c0,0.1,0.5,0.6,0.7,0.6
		s0.5-0.4,0.7-0.6c0.2,0.1,0.3,0.2,0.5,0.2c0.2,0,0.4-0.1,0.4-0.3c-0.4-0.1-0.7-0.4-0.8-0.8c-0.2-0.3-0.3-0.6-0.3-1
		c0,0,0.1-0.1,0.1-0.1c0.3,0.1,0.7,0.2,1,0.4c0.4,0.2,0.8,0.5,0.8,0.8c0.2-0.1,0.3-0.3,0.3-0.5c0-0.2-0.1-0.4-0.2-0.5
		C92.5,38.7,93.1,38.3,93,38.1"/>
	<path id="Path_38" class="st0" d="M117,75.1c0-0.2-0.4-0.5-0.6-0.7c0.1-0.2,0.2-0.3,0.2-0.5c0-0.2-0.1-0.4-0.3-0.5
		c-0.1,0.4-0.4,0.7-0.8,0.8c-0.3,0.2-0.7,0.3-1,0.3c0,0-0.1-0.1-0.1-0.1c0.1-0.3,0.2-0.7,0.4-1c0.2-0.4,0.5-0.8,0.8-0.8
		c-0.1-0.2-0.3-0.3-0.5-0.3c-0.2,0-0.4,0.1-0.5,0.2c0-0.1-0.5-0.6-0.7-0.6s-0.5,0.4-0.7,0.6c-0.2-0.1-0.3-0.2-0.5-0.2
		c-0.2,0-0.4,0.1-0.4,0.3c0.4,0.1,0.7,0.4,0.8,0.8c0.2,0.3,0.3,0.7,0.3,1c0,0-0.1,0.1-0.1,0.1c-0.3-0.1-0.7-0.2-1-0.4
		c-0.4-0.2-0.8-0.5-0.8-0.8c-0.2,0.1-0.3,0.3-0.3,0.5c0,0.2,0.1,0.4,0.2,0.5c-0.1,0-0.6,0.5-0.6,0.7s0.4,0.5,0.6,0.7
		c-0.1,0.2-0.2,0.3-0.2,0.5c0,0.2,0.1,0.4,0.3,0.5c0.1-0.4,0.4-0.7,0.8-0.8c0.3-0.2,0.7-0.3,1-0.3c0,0,0.1,0.1,0.1,0.1
		c-0.1,0.3-0.2,0.7-0.4,1c-0.2,0.4-0.5,0.8-0.8,0.8c0.1,0.2,0.3,0.3,0.5,0.3c0.2,0,0.4-0.1,0.5-0.2c0,0.1,0.5,0.6,0.7,0.6
		s0.5-0.4,0.7-0.6c0.2,0.1,0.3,0.2,0.5,0.2c0.2,0,0.4-0.1,0.4-0.3c-0.4-0.1-0.7-0.4-0.8-0.8c-0.2-0.3-0.3-0.6-0.3-1
		c0,0,0.1-0.1,0.1-0.1c0.3,0.1,0.7,0.2,1,0.4c0.4,0.2,0.8,0.5,0.8,0.8c0.2-0.1,0.3-0.3,0.3-0.5c0-0.2-0.1-0.4-0.2-0.5
		C116.5,75.7,117.1,75.3,117,75.1"/>
	<path id="Path_41" class="st0" d="M117,38.1c0-0.2-0.4-0.5-0.6-0.7c0.1-0.2,0.2-0.3,0.2-0.5c0-0.2-0.1-0.4-0.3-0.5
		c-0.1,0.4-0.4,0.7-0.8,0.8c-0.3,0.2-0.7,0.3-1,0.3c0,0-0.1-0.1-0.1-0.1c0.1-0.3,0.2-0.7,0.4-1c0.2-0.4,0.5-0.8,0.8-0.8
		c-0.1-0.2-0.3-0.3-0.5-0.3c-0.2,0-0.4,0.1-0.5,0.2c0-0.1-0.5-0.6-0.7-0.6s-0.5,0.4-0.7,0.6c-0.2-0.1-0.3-0.2-0.5-0.2
		c-0.2,0-0.4,0.1-0.4,0.3c0.4,0.1,0.7,0.4,0.8,0.8c0.2,0.3,0.3,0.7,0.3,1c0,0-0.1,0.1-0.1,0.1c-0.3-0.1-0.7-0.2-1-0.4
		c-0.4-0.2-0.8-0.5-0.8-0.8c-0.2,0.1-0.3,0.3-0.3,0.5c0,0.2,0.1,0.4,0.2,0.5c-0.1,0-0.6,0.5-0.6,0.7s0.4,0.5,0.6,0.7
		c-0.1,0.2-0.2,0.3-0.2,0.5c0,0.2,0.1,0.4,0.3,0.5c0.1-0.4,0.4-0.7,0.8-0.8c0.3-0.2,0.7-0.3,1-0.3c0,0,0.1,0.1,0.1,0.1
		c-0.1,0.3-0.2,0.7-0.4,1c-0.2,0.4-0.5,0.8-0.8,0.8c0.1,0.2,0.3,0.3,0.5,0.3c0.2,0,0.4-0.1,0.5-0.2c0,0.1,0.5,0.6,0.7,0.6
		s0.5-0.4,0.7-0.6c0.2,0.1,0.3,0.2,0.5,0.2c0.2,0,0.4-0.1,0.4-0.3c-0.4-0.1-0.7-0.4-0.8-0.8c-0.2-0.3-0.3-0.6-0.3-1
		c0,0,0.1-0.1,0.1-0.1c0.3,0.1,0.7,0.2,1,0.4c0.4,0.2,0.8,0.5,0.8,0.8c0.2-0.1,0.3-0.3,0.3-0.5c0-0.2-0.1-0.4-0.2-0.5
		C116.5,38.7,117.1,38.3,117,38.1"/>
	<path id="Path_56" class="st0" d="M14,38.1c0-0.2-0.4-0.5-0.6-0.7c0.1-0.2,0.2-0.3,0.2-0.5c0-0.2-0.1-0.4-0.3-0.5
		c-0.1,0.4-0.4,0.7-0.8,0.8c-0.3,0.2-0.7,0.3-1,0.3c0,0-0.1-0.1-0.1-0.1c0.1-0.3,0.2-0.7,0.4-1c0.2-0.4,0.5-0.8,0.8-0.8
		c-0.1-0.2-0.3-0.3-0.5-0.3c-0.2,0-0.4,0.1-0.5,0.2c0-0.1-0.5-0.6-0.7-0.6s-0.5,0.4-0.7,0.6c-0.2-0.1-0.3-0.2-0.5-0.2
		c-0.2,0-0.4,0.1-0.4,0.3c0.4,0.1,0.7,0.4,0.8,0.8c0.2,0.3,0.3,0.7,0.3,1c0,0-0.1,0.1-0.1,0.1c-0.3-0.1-0.7-0.2-1-0.4
		c-0.4-0.2-0.8-0.5-0.8-0.8c-0.2,0.1-0.3,0.3-0.3,0.5c0,0.2,0.1,0.4,0.2,0.5c-0.1,0-0.6,0.5-0.6,0.7s0.4,0.5,0.6,0.7
		c-0.1,0.2-0.2,0.3-0.2,0.5c0,0.2,0.1,0.4,0.3,0.5c0.1-0.4,0.4-0.7,0.8-0.8c0.3-0.2,0.7-0.3,1-0.3c0,0,0.1,0.1,0.1,0.1
		c-0.1,0.3-0.2,0.7-0.4,1C10,40,9.7,40.4,9.4,40.4c0.1,0.2,0.3,0.3,0.5,0.3c0.2,0,0.4-0.1,0.5-0.2c0,0.1,0.5,0.6,0.7,0.6
		s0.5-0.4,0.7-0.6c0.2,0.1,0.3,0.2,0.5,0.2c0.2,0,0.4-0.1,0.4-0.3c-0.4-0.1-0.7-0.4-0.8-0.8c-0.2-0.3-0.3-0.6-0.3-1
		c0,0,0.1-0.1,0.1-0.1c0.3,0.1,0.7,0.2,1,0.4c0.4,0.2,0.8,0.5,0.8,0.8c0.2-0.1,0.3-0.3,0.3-0.5c0-0.2-0.1-0.4-0.2-0.5
		C13.5,38.7,14.1,38.3,14,38.1"/>
	<path id="Path_57" class="st0" d="M6,75.1c0-0.2-0.4-0.5-0.6-0.7c0.1-0.2,0.2-0.3,0.2-0.5c0-0.2-0.1-0.4-0.3-0.5
		c-0.1,0.4-0.4,0.7-0.8,0.8c-0.3,0.2-0.7,0.3-1,0.3c0,0-0.1-0.1-0.1-0.1c0.1-0.3,0.2-0.7,0.4-1c0.2-0.4,0.5-0.8,0.8-0.8
		c-0.1-0.2-0.3-0.3-0.5-0.3c-0.2,0-0.4,0.1-0.5,0.2C3.7,72.6,3.2,72,3,72s-0.5,0.4-0.7,0.6c-0.2-0.1-0.3-0.2-0.5-0.2
		c-0.2,0-0.4,0.1-0.4,0.3c0.4,0.1,0.7,0.4,0.8,0.8c0.2,0.3,0.3,0.7,0.3,1c0,0-0.1,0.1-0.1,0.1c-0.3-0.1-0.7-0.2-1-0.4
		c-0.4-0.2-0.8-0.5-0.8-0.8c-0.2,0.1-0.3,0.3-0.3,0.5c0,0.2,0.1,0.4,0.2,0.5c-0.1,0-0.6,0.5-0.6,0.7s0.4,0.5,0.6,0.7
		c-0.1,0.2-0.2,0.3-0.2,0.5c0,0.2,0.1,0.4,0.3,0.5c0.1-0.4,0.4-0.7,0.8-0.8c0.3-0.2,0.7-0.3,1-0.3c0,0,0.1,0.1,0.1,0.1
		c-0.1,0.3-0.2,0.7-0.4,1C2,77,1.7,77.4,1.4,77.4c0.1,0.2,0.3,0.3,0.5,0.3c0.2,0,0.4-0.1,0.5-0.2c0,0.1,0.5,0.6,0.7,0.6
		s0.5-0.4,0.7-0.6c0.2,0.1,0.3,0.2,0.5,0.2c0.2,0,0.4-0.1,0.4-0.3C4.3,77.3,4,77,3.9,76.7c-0.2-0.3-0.3-0.6-0.3-1
		c0,0,0.1-0.1,0.1-0.1c0.3,0.1,0.7,0.2,1,0.4c0.4,0.2,0.8,0.5,0.8,0.8c0.2-0.1,0.3-0.3,0.3-0.5c0-0.2-0.1-0.4-0.2-0.5
		C5.5,75.7,6.1,75.3,6,75.1"/>
	<path id="Path_59" class="st0" d="M149,75.1c0-0.2-0.4-0.5-0.6-0.7c0.1-0.2,0.2-0.3,0.2-0.5c0-0.2-0.1-0.4-0.3-0.5
		c-0.1,0.4-0.4,0.7-0.8,0.8c-0.3,0.2-0.7,0.3-1,0.3c0,0-0.1-0.1-0.1-0.1c0.1-0.3,0.2-0.7,0.4-1c0.2-0.4,0.5-0.8,0.8-0.8
		c-0.1-0.2-0.3-0.3-0.5-0.3c-0.2,0-0.4,0.1-0.5,0.2c0-0.1-0.5-0.6-0.7-0.6s-0.5,0.4-0.7,0.6c-0.2-0.1-0.3-0.2-0.5-0.2
		c-0.2,0-0.4,0.1-0.4,0.3c0.4,0.1,0.7,0.4,0.8,0.8c0.2,0.3,0.3,0.7,0.3,1c0,0-0.1,0.1-0.1,0.1c-0.3-0.1-0.7-0.2-1-0.4
		c-0.4-0.2-0.8-0.5-0.8-0.8c-0.2,0.1-0.3,0.3-0.3,0.5c0,0.2,0.1,0.4,0.2,0.5c-0.1,0-0.6,0.5-0.6,0.7s0.4,0.5,0.6,0.7
		c-0.1,0.2-0.2,0.3-0.2,0.5c0,0.2,0.1,0.4,0.3,0.5c0.1-0.4,0.4-0.7,0.8-0.8c0.3-0.2,0.7-0.3,1-0.3c0,0,0.1,0.1,0.1,0.1
		c-0.1,0.3-0.2,0.7-0.4,1c-0.2,0.4-0.5,0.8-0.8,0.8c0.1,0.2,0.3,0.3,0.5,0.3c0.2,0,0.4-0.1,0.5-0.2c0,0.1,0.5,0.6,0.7,0.6
		s0.5-0.4,0.7-0.6c0.2,0.1,0.3,0.2,0.5,0.2c0.2,0,0.4-0.1,0.4-0.3c-0.4-0.1-0.7-0.4-0.8-0.8c-0.2-0.3-0.3-0.6-0.3-1
		c0,0,0.1-0.1,0.1-0.1c0.3,0.1,0.7,0.2,1,0.4c0.4,0.2,0.8,0.5,0.8,0.8c0.2-0.1,0.3-0.3,0.3-0.5c0-0.2-0.1-0.4-0.2-0.5
		C148.5,75.7,149.1,75.3,149,75.1"/>
	<path id="Path_58" class="st0" d="M6,38.1c0-0.2-0.4-0.5-0.6-0.7c0.1-0.2,0.2-0.3,0.2-0.5c0-0.2-0.1-0.4-0.3-0.5
		c-0.1,0.4-0.4,0.7-0.8,0.8c-0.3,0.2-0.7,0.3-1,0.3c0,0-0.1-0.1-0.1-0.1c0.1-0.3,0.2-0.7,0.4-1c0.2-0.4,0.5-0.8,0.8-0.8
		c-0.1-0.2-0.3-0.3-0.5-0.3c-0.2,0-0.4,0.1-0.5,0.2C3.7,35.6,3.2,35,3,35s-0.5,0.4-0.7,0.6c-0.2-0.1-0.3-0.2-0.5-0.2
		c-0.2,0-0.4,0.1-0.4,0.3c0.4,0.1,0.7,0.4,0.8,0.8c0.2,0.3,0.3,0.7,0.3,1c0,0-0.1,0.1-0.1,0.1c-0.3-0.1-0.7-0.2-1-0.4
		c-0.4-0.2-0.8-0.5-0.8-0.8c-0.2,0.1-0.3,0.3-0.3,0.5c0,0.2,0.1,0.4,0.2,0.5c-0.1,0-0.6,0.5-0.6,0.7s0.4,0.5,0.6,0.7
		c-0.1,0.2-0.2,0.3-0.2,0.5c0,0.2,0.1,0.4,0.3,0.5c0.1-0.4,0.4-0.7,0.8-0.8c0.3-0.2,0.7-0.3,1-0.3c0,0,0.1,0.1,0.1,0.1
		c-0.1,0.3-0.2,0.7-0.4,1C2,40,1.7,40.4,1.4,40.4c0.1,0.2,0.3,0.3,0.5,0.3c0.2,0,0.4-0.1,0.5-0.2c0,0.1,0.5,0.6,0.7,0.6
		s0.5-0.4,0.7-0.6c0.2,0.1,0.3,0.2,0.5,0.2c0.2,0,0.4-0.1,0.4-0.3C4.3,40.3,4,40,3.9,39.7c-0.2-0.3-0.3-0.6-0.3-1
		c0,0,0.1-0.1,0.1-0.1c0.3,0.1,0.7,0.2,1,0.4c0.4,0.2,0.8,0.5,0.8,0.8c0.2-0.1,0.3-0.3,0.3-0.5c0-0.2-0.1-0.4-0.2-0.5
		C5.5,38.7,6.1,38.3,6,38.1"/>
	<path id="Path_61" class="st0" d="M6,47.1c0-0.2-0.4-0.5-0.6-0.7c0.1-0.2,0.2-0.3,0.2-0.5c0-0.2-0.1-0.4-0.3-0.5
		c-0.1,0.4-0.4,0.7-0.8,0.8c-0.3,0.2-0.7,0.3-1,0.3c0,0-0.1-0.1-0.1-0.1c0.1-0.3,0.2-0.7,0.4-1c0.2-0.4,0.5-0.8,0.8-0.8
		c-0.1-0.2-0.3-0.3-0.5-0.3c-0.2,0-0.4,0.1-0.5,0.2C3.7,44.6,3.2,44,3,44s-0.5,0.4-0.7,0.6c-0.2-0.1-0.3-0.2-0.5-0.2
		c-0.2,0-0.4,0.1-0.4,0.3c0.4,0.1,0.7,0.4,0.8,0.8c0.2,0.3,0.3,0.7,0.3,1c0,0-0.1,0.1-0.1,0.1c-0.3-0.1-0.7-0.2-1-0.4
		c-0.4-0.2-0.8-0.5-0.8-0.8c-0.2,0.1-0.3,0.3-0.3,0.5c0,0.2,0.1,0.4,0.2,0.5c-0.1,0-0.6,0.5-0.6,0.7s0.4,0.5,0.6,0.7
		c-0.1,0.2-0.2,0.3-0.2,0.5c0,0.2,0.1,0.4,0.3,0.5c0.1-0.4,0.4-0.7,0.8-0.8c0.3-0.2,0.7-0.3,1-0.3c0,0,0.1,0.1,0.1,0.1
		c-0.1,0.3-0.2,0.7-0.4,1C2,49,1.7,49.4,1.4,49.4c0.1,0.2,0.3,0.3,0.5,0.3c0.2,0,0.4-0.1,0.5-0.2c0,0.1,0.5,0.6,0.7,0.6
		s0.5-0.4,0.7-0.6c0.2,0.1,0.3,0.2,0.5,0.2c0.2,0,0.4-0.1,0.4-0.3C4.3,49.3,4,49,3.9,48.7c-0.2-0.3-0.3-0.6-0.3-1
		c0,0,0.1-0.1,0.1-0.1c0.3,0.1,0.7,0.2,1,0.4c0.4,0.2,0.8,0.5,0.8,0.8c0.2-0.1,0.3-0.3,0.3-0.5c0-0.2-0.1-0.4-0.2-0.5
		C5.5,47.7,6.1,47.3,6,47.1"/>
	<path id="Path_66" class="st0" d="M149,47.1c0-0.2-0.4-0.5-0.6-0.7c0.1-0.2,0.2-0.3,0.2-0.5c0-0.2-0.1-0.4-0.3-0.5
		c-0.1,0.4-0.4,0.7-0.8,0.8c-0.3,0.2-0.7,0.3-1,0.3c0,0-0.1-0.1-0.1-0.1c0.1-0.3,0.2-0.7,0.4-1c0.2-0.4,0.5-0.8,0.8-0.8
		c-0.1-0.2-0.3-0.3-0.5-0.3c-0.2,0-0.4,0.1-0.5,0.2c0-0.1-0.5-0.6-0.7-0.6s-0.5,0.4-0.7,0.6c-0.2-0.1-0.3-0.2-0.5-0.2
		c-0.2,0-0.4,0.1-0.4,0.3c0.4,0.1,0.7,0.4,0.8,0.8c0.2,0.3,0.3,0.7,0.3,1c0,0-0.1,0.1-0.1,0.1c-0.3-0.1-0.7-0.2-1-0.4
		c-0.4-0.2-0.8-0.5-0.8-0.8c-0.2,0.1-0.3,0.3-0.3,0.5c0,0.2,0.1,0.4,0.2,0.5c-0.1,0-0.6,0.5-0.6,0.7s0.4,0.5,0.6,0.7
		c-0.1,0.2-0.2,0.3-0.2,0.5c0,0.2,0.1,0.4,0.3,0.5c0.1-0.4,0.4-0.7,0.8-0.8c0.3-0.2,0.7-0.3,1-0.3c0,0,0.1,0.1,0.1,0.1
		c-0.1,0.3-0.2,0.7-0.4,1c-0.2,0.4-0.5,0.8-0.8,0.8c0.1,0.2,0.3,0.3,0.5,0.3c0.2,0,0.4-0.1,0.5-0.2c0,0.1,0.5,0.6,0.7,0.6
		s0.5-0.4,0.7-0.6c0.2,0.1,0.3,0.2,0.5,0.2c0.2,0,0.4-0.1,0.4-0.3c-0.4-0.1-0.7-0.4-0.8-0.8c-0.2-0.3-0.3-0.6-0.3-1
		c0,0,0.1-0.1,0.1-0.1c0.3,0.1,0.7,0.2,1,0.4c0.4,0.2,0.8,0.5,0.8,0.8c0.2-0.1,0.3-0.3,0.3-0.5c0-0.2-0.1-0.4-0.2-0.5
		C148.5,47.7,149.1,47.3,149,47.1"/>
	<path id="Path_62" class="st0" d="M6,56.1c0-0.2-0.4-0.5-0.6-0.7c0.1-0.2,0.2-0.3,0.2-0.5c0-0.2-0.1-0.4-0.3-0.5
		c-0.1,0.4-0.4,0.7-0.8,0.8c-0.3,0.2-0.7,0.3-1,0.3c0,0-0.1-0.1-0.1-0.1c0.1-0.3,0.2-0.7,0.4-1c0.2-0.4,0.5-0.8,0.8-0.8
		c-0.1-0.2-0.3-0.3-0.5-0.3c-0.2,0-0.4,0.1-0.5,0.2C3.7,53.6,3.2,53,3,53s-0.5,0.4-0.7,0.6c-0.2-0.1-0.3-0.2-0.5-0.2
		c-0.2,0-0.4,0.1-0.4,0.3c0.4,0.1,0.7,0.4,0.8,0.8c0.2,0.3,0.3,0.7,0.3,1c0,0-0.1,0.1-0.1,0.1c-0.3-0.1-0.7-0.2-1-0.4
		c-0.4-0.2-0.8-0.5-0.8-0.8c-0.2,0.1-0.3,0.3-0.3,0.5c0,0.2,0.1,0.4,0.2,0.5c-0.1,0-0.6,0.5-0.6,0.7s0.4,0.5,0.6,0.7
		c-0.1,0.2-0.2,0.3-0.2,0.5c0,0.2,0.1,0.4,0.3,0.5c0.1-0.4,0.4-0.7,0.8-0.8c0.3-0.2,0.7-0.3,1-0.3c0,0,0.1,0.1,0.1,0.1
		c-0.1,0.3-0.2,0.7-0.4,1C2,58,1.7,58.4,1.4,58.4c0.1,0.2,0.3,0.3,0.5,0.3c0.2,0,0.4-0.1,0.5-0.2c0,0.1,0.5,0.6,0.7,0.6
		s0.5-0.4,0.7-0.6c0.2,0.1,0.3,0.2,0.5,0.2c0.2,0,0.4-0.1,0.4-0.3C4.3,58.3,4,58,3.9,57.7c-0.2-0.3-0.3-0.6-0.3-1
		c0,0,0.1-0.1,0.1-0.1c0.3,0.1,0.7,0.2,1,0.4c0.4,0.2,0.8,0.5,0.8,0.8c0.2-0.1,0.3-0.3,0.3-0.5c0-0.2-0.1-0.4-0.2-0.5
		C5.5,56.7,6.1,56.3,6,56.1"/>
	<path id="Path_65" class="st0" d="M149,56.1c0-0.2-0.4-0.5-0.6-0.7c0.1-0.2,0.2-0.3,0.2-0.5c0-0.2-0.1-0.4-0.3-0.5
		c-0.1,0.4-0.4,0.7-0.8,0.8c-0.3,0.2-0.7,0.3-1,0.3c0,0-0.1-0.1-0.1-0.1c0.1-0.3,0.2-0.7,0.4-1c0.2-0.4,0.5-0.8,0.8-0.8
		c-0.1-0.2-0.3-0.3-0.5-0.3c-0.2,0-0.4,0.1-0.5,0.2c0-0.1-0.5-0.6-0.7-0.6s-0.5,0.4-0.7,0.6c-0.2-0.1-0.3-0.2-0.5-0.2
		c-0.2,0-0.4,0.1-0.4,0.3c0.4,0.1,0.7,0.4,0.8,0.8c0.2,0.3,0.3,0.7,0.3,1c0,0-0.1,0.1-0.1,0.1c-0.3-0.1-0.7-0.2-1-0.4
		c-0.4-0.2-0.8-0.5-0.8-0.8c-0.2,0.1-0.3,0.3-0.3,0.5c0,0.2,0.1,0.4,0.2,0.5c-0.1,0-0.6,0.5-0.6,0.7s0.4,0.5,0.6,0.7
		c-0.1,0.2-0.2,0.3-0.2,0.5c0,0.2,0.1,0.4,0.3,0.5c0.1-0.4,0.4-0.7,0.8-0.8c0.3-0.2,0.7-0.3,1-0.3c0,0,0.1,0.1,0.1,0.1
		c-0.1,0.3-0.2,0.7-0.4,1c-0.2,0.4-0.5,0.8-0.8,0.8c0.1,0.2,0.3,0.3,0.5,0.3c0.2,0,0.4-0.1,0.5-0.2c0,0.1,0.5,0.6,0.7,0.6
		s0.5-0.4,0.7-0.6c0.2,0.1,0.3,0.2,0.5,0.2c0.2,0,0.4-0.1,0.4-0.3c-0.4-0.1-0.7-0.4-0.8-0.8c-0.2-0.3-0.3-0.6-0.3-1
		c0,0,0.1-0.1,0.1-0.1c0.3,0.1,0.7,0.2,1,0.4c0.4,0.2,0.8,0.5,0.8,0.8c0.2-0.1,0.3-0.3,0.3-0.5c0-0.2-0.1-0.4-0.2-0.5
		C148.5,56.7,149.1,56.3,149,56.1"/>
	<path id="Path_63" class="st0" d="M6,66.1c0-0.2-0.4-0.5-0.6-0.7c0.1-0.2,0.2-0.3,0.2-0.5c0-0.2-0.1-0.4-0.3-0.5
		c-0.1,0.4-0.4,0.7-0.8,0.8c-0.3,0.2-0.7,0.3-1,0.3c0,0-0.1-0.1-0.1-0.1c0.1-0.3,0.2-0.7,0.4-1c0.2-0.4,0.5-0.8,0.8-0.8
		c-0.1-0.2-0.3-0.3-0.5-0.3c-0.2,0-0.4,0.1-0.5,0.2C3.7,63.6,3.2,63,3,63s-0.5,0.4-0.7,0.6c-0.2-0.1-0.3-0.2-0.5-0.2
		c-0.2,0-0.4,0.1-0.4,0.3c0.4,0.1,0.7,0.4,0.8,0.8c0.2,0.3,0.3,0.7,0.3,1c0,0-0.1,0.1-0.1,0.1c-0.3-0.1-0.7-0.2-1-0.4
		c-0.4-0.2-0.8-0.5-0.8-0.8c-0.2,0.1-0.3,0.3-0.3,0.5c0,0.2,0.1,0.4,0.2,0.5c-0.1,0-0.6,0.5-0.6,0.7s0.4,0.5,0.6,0.7
		c-0.1,0.2-0.2,0.3-0.2,0.5c0,0.2,0.1,0.4,0.3,0.5c0.1-0.4,0.4-0.7,0.8-0.8c0.3-0.2,0.7-0.3,1-0.3c0,0,0.1,0.1,0.1,0.1
		c-0.1,0.3-0.2,0.7-0.4,1C2,68,1.7,68.4,1.4,68.4c0.1,0.2,0.3,0.3,0.5,0.3c0.2,0,0.4-0.1,0.5-0.2c0,0.1,0.5,0.6,0.7,0.6
		s0.5-0.4,0.7-0.6c0.2,0.1,0.3,0.2,0.5,0.2c0.2,0,0.4-0.1,0.4-0.3C4.3,68.3,4,68,3.9,67.7c-0.2-0.3-0.3-0.6-0.3-1
		c0,0,0.1-0.1,0.1-0.1c0.3,0.1,0.7,0.2,1,0.4c0.4,0.2,0.8,0.5,0.8,0.8c0.2-0.1,0.3-0.3,0.3-0.5c0-0.2-0.1-0.4-0.2-0.5
		C5.5,66.7,6.1,66.3,6,66.1"/>
	<path id="Path_64" class="st0" d="M149,66.1c0-0.2-0.4-0.5-0.6-0.7c0.1-0.2,0.2-0.3,0.2-0.5c0-0.2-0.1-0.4-0.3-0.5
		c-0.1,0.4-0.4,0.7-0.8,0.8c-0.3,0.2-0.7,0.3-1,0.3c0,0-0.1-0.1-0.1-0.1c0.1-0.3,0.2-0.7,0.4-1c0.2-0.4,0.5-0.8,0.8-0.8
		c-0.1-0.2-0.3-0.3-0.5-0.3c-0.2,0-0.4,0.1-0.5,0.2c0-0.1-0.5-0.6-0.7-0.6s-0.5,0.4-0.7,0.6c-0.2-0.1-0.3-0.2-0.5-0.2
		c-0.2,0-0.4,0.1-0.4,0.3c0.4,0.1,0.7,0.4,0.8,0.8c0.2,0.3,0.3,0.7,0.3,1c0,0-0.1,0.1-0.1,0.1c-0.3-0.1-0.7-0.2-1-0.4
		c-0.4-0.2-0.8-0.5-0.8-0.8c-0.2,0.1-0.3,0.3-0.3,0.5c0,0.2,0.1,0.4,0.2,0.5c-0.1,0-0.6,0.5-0.6,0.7s0.4,0.5,0.6,0.7
		c-0.1,0.2-0.2,0.3-0.2,0.5c0,0.2,0.1,0.4,0.3,0.5c0.1-0.4,0.4-0.7,0.8-0.8c0.3-0.2,0.7-0.3,1-0.3c0,0,0.1,0.1,0.1,0.1
		c-0.1,0.3-0.2,0.7-0.4,1c-0.2,0.4-0.5,0.8-0.8,0.8c0.1,0.2,0.3,0.3,0.5,0.3c0.2,0,0.4-0.1,0.5-0.2c0,0.1,0.5,0.6,0.7,0.6
		s0.5-0.4,0.7-0.6c0.2,0.1,0.3,0.2,0.5,0.2c0.2,0,0.4-0.1,0.4-0.3c-0.4-0.1-0.7-0.4-0.8-0.8c-0.2-0.3-0.3-0.6-0.3-1
		c0,0,0.1-0.1,0.1-0.1c0.3,0.1,0.7,0.2,1,0.4c0.4,0.2,0.8,0.5,0.8,0.8c0.2-0.1,0.3-0.3,0.3-0.5c0-0.2-0.1-0.4-0.2-0.5
		C148.5,66.7,149.1,66.3,149,66.1"/>
	<path id="Path_60" class="st0" d="M149,38.1c0-0.2-0.4-0.5-0.6-0.7c0.1-0.2,0.2-0.3,0.2-0.5c0-0.2-0.1-0.4-0.3-0.5
		c-0.1,0.4-0.4,0.7-0.8,0.8c-0.3,0.2-0.7,0.3-1,0.3c0,0-0.1-0.1-0.1-0.1c0.1-0.3,0.2-0.7,0.4-1c0.2-0.4,0.5-0.8,0.8-0.8
		c-0.1-0.2-0.3-0.3-0.5-0.3c-0.2,0-0.4,0.1-0.5,0.2c0-0.1-0.5-0.6-0.7-0.6s-0.5,0.4-0.7,0.6c-0.2-0.1-0.3-0.2-0.5-0.2
		c-0.2,0-0.4,0.1-0.4,0.3c0.4,0.1,0.7,0.4,0.8,0.8c0.2,0.3,0.3,0.7,0.3,1c0,0-0.1,0.1-0.1,0.1c-0.3-0.1-0.7-0.2-1-0.4
		c-0.4-0.2-0.8-0.5-0.8-0.8c-0.2,0.1-0.3,0.3-0.3,0.5c0,0.2,0.1,0.4,0.2,0.5c-0.1,0-0.6,0.5-0.6,0.7s0.4,0.5,0.6,0.7
		c-0.1,0.2-0.2,0.3-0.2,0.5c0,0.2,0.1,0.4,0.3,0.5c0.1-0.4,0.4-0.7,0.8-0.8c0.3-0.2,0.7-0.3,1-0.3c0,0,0.1,0.1,0.1,0.1
		c-0.1,0.3-0.2,0.7-0.4,1c-0.2,0.4-0.5,0.8-0.8,0.8c0.1,0.2,0.3,0.3,0.5,0.3c0.2,0,0.4-0.1,0.5-0.2c0,0.1,0.5,0.6,0.7,0.6
		s0.5-0.4,0.7-0.6c0.2,0.1,0.3,0.2,0.5,0.2c0.2,0,0.4-0.1,0.4-0.3c-0.4-0.1-0.7-0.4-0.8-0.8c-0.2-0.3-0.3-0.6-0.3-1
		c0,0,0.1-0.1,0.1-0.1c0.3,0.1,0.7,0.2,1,0.4c0.4,0.2,0.8,0.5,0.8,0.8c0.2-0.1,0.3-0.3,0.3-0.5c0-0.2-0.1-0.4-0.2-0.5
		C148.5,38.7,149.1,38.3,149,38.1"/>
	<path id="Path_76" class="st0" d="M133,75.1c0-0.2-0.4-0.5-0.6-0.7c0.1-0.2,0.2-0.3,0.2-0.5c0-0.2-0.1-0.4-0.3-0.5
		c-0.1,0.4-0.4,0.7-0.8,0.8c-0.3,0.2-0.7,0.3-1,0.3c0,0-0.1-0.1-0.1-0.1c0.1-0.3,0.2-0.7,0.4-1c0.2-0.4,0.5-0.8,0.8-0.8
		c-0.1-0.2-0.3-0.3-0.5-0.3c-0.2,0-0.4,0.1-0.5,0.2c0-0.1-0.5-0.6-0.7-0.6s-0.5,0.4-0.7,0.6c-0.2-0.1-0.3-0.2-0.5-0.2
		c-0.2,0-0.4,0.1-0.4,0.3c0.4,0.1,0.7,0.4,0.8,0.8c0.2,0.3,0.3,0.7,0.3,1c0,0-0.1,0.1-0.1,0.1c-0.3-0.1-0.7-0.2-1-0.4
		c-0.4-0.2-0.8-0.5-0.8-0.8c-0.2,0.1-0.3,0.3-0.3,0.5c0,0.2,0.1,0.4,0.2,0.5c-0.1,0-0.6,0.5-0.6,0.7s0.4,0.5,0.6,0.7
		c-0.1,0.2-0.2,0.3-0.2,0.5c0,0.2,0.1,0.4,0.3,0.5c0.1-0.4,0.4-0.7,0.8-0.8c0.3-0.2,0.7-0.3,1-0.3c0,0,0.1,0.1,0.1,0.1
		c-0.1,0.3-0.2,0.7-0.4,1c-0.2,0.4-0.5,0.8-0.8,0.8c0.1,0.2,0.3,0.3,0.5,0.3c0.2,0,0.4-0.1,0.5-0.2c0,0.1,0.5,0.6,0.7,0.6
		s0.5-0.4,0.7-0.6c0.2,0.1,0.3,0.2,0.5,0.2c0.2,0,0.4-0.1,0.4-0.3c-0.4-0.1-0.7-0.4-0.8-0.8c-0.2-0.3-0.3-0.6-0.3-1
		c0,0,0.1-0.1,0.1-0.1c0.3,0.1,0.7,0.2,1,0.4c0.4,0.2,0.8,0.5,0.8,0.8c0.2-0.1,0.3-0.3,0.3-0.5c0-0.2-0.1-0.4-0.2-0.5
		C132.5,75.7,133.1,75.3,133,75.1"/>
	<path id="Path_77" class="st0" d="M133,38.1c0-0.2-0.4-0.5-0.6-0.7c0.1-0.2,0.2-0.3,0.2-0.5c0-0.2-0.1-0.4-0.3-0.5
		c-0.1,0.4-0.4,0.7-0.8,0.8c-0.3,0.2-0.7,0.3-1,0.3c0,0-0.1-0.1-0.1-0.1c0.1-0.3,0.2-0.7,0.4-1c0.2-0.4,0.5-0.8,0.8-0.8
		c-0.1-0.2-0.3-0.3-0.5-0.3c-0.2,0-0.4,0.1-0.5,0.2c0-0.1-0.5-0.6-0.7-0.6s-0.5,0.4-0.7,0.6c-0.2-0.1-0.3-0.2-0.5-0.2
		c-0.2,0-0.4,0.1-0.4,0.3c0.4,0.1,0.7,0.4,0.8,0.8c0.2,0.3,0.3,0.7,0.3,1c0,0-0.1,0.1-0.1,0.1c-0.3-0.1-0.7-0.2-1-0.4
		c-0.4-0.2-0.8-0.5-0.8-0.8c-0.2,0.1-0.3,0.3-0.3,0.5c0,0.2,0.1,0.4,0.2,0.5c-0.1,0-0.6,0.5-0.6,0.7s0.4,0.5,0.6,0.7
		c-0.1,0.2-0.2,0.3-0.2,0.5c0,0.2,0.1,0.4,0.3,0.5c0.1-0.4,0.4-0.7,0.8-0.8c0.3-0.2,0.7-0.3,1-0.3c0,0,0.1,0.1,0.1,0.1
		c-0.1,0.3-0.2,0.7-0.4,1c-0.2,0.4-0.5,0.8-0.8,0.8c0.1,0.2,0.3,0.3,0.5,0.3c0.2,0,0.4-0.1,0.5-0.2c0,0.1,0.5,0.6,0.7,0.6
		s0.5-0.4,0.7-0.6c0.2,0.1,0.3,0.2,0.5,0.2c0.2,0,0.4-0.1,0.4-0.3c-0.4-0.1-0.7-0.4-0.8-0.8c-0.2-0.3-0.3-0.6-0.3-1
		c0,0,0.1-0.1,0.1-0.1c0.3,0.1,0.7,0.2,1,0.4c0.4,0.2,0.8,0.5,0.8,0.8c0.2-0.1,0.3-0.3,0.3-0.5c0-0.2-0.1-0.4-0.2-0.5
		C132.5,38.7,133.1,38.3,133,38.1"/>
</g>
</svg>
