<?xml version="1.0" encoding="utf-8"?>
<!-- Generator: Adobe Illustrator 25.0.0, SVG Export Plug-In . SVG Version: 6.00 Build 0)  -->
<svg version="1.1" id="Layer_1" xmlns="http://www.w3.org/2000/svg" xmlns:xlink="http://www.w3.org/1999/xlink" x="0px" y="0px"
	 viewBox="0 0 15 15" style="enable-background:new 0 0 15 15;" xml:space="preserve">
<style type="text/css">
	.st0{filter:url(#Adobe_OpacityMaskFilter);}
	.st1{fill-rule:evenodd;clip-rule:evenodd;fill:#FFFFFF;}
	.st2{mask:url(#b_1_);fill-rule:evenodd;clip-rule:evenodd;fill:#333333;}
</style>
<g>
	<defs>
		<filter id="Adobe_OpacityMaskFilter" filterUnits="userSpaceOnUse" x="0" y="0" width="15" height="15">
			<feColorMatrix  type="matrix" values="1 0 0 0 0  0 1 0 0 0  0 0 1 0 0  0 0 0 1 0"/>
		</filter>
	</defs>
	<mask maskUnits="userSpaceOnUse" x="0" y="0" width="15" height="15" id="b_1_">
		<g class="st0">
			<path id="a_1_" class="st1" d="M0,0h15v15H0V0z"/>
		</g>
	</mask>
	<path class="st2" d="M1.5,3.6c0.9,1.4,2.3,2,3.8,2.5c0.8,0.3,1.2,0.1,0.8-0.8C5.6,3.7,5.1,2.3,3.6,1.4C3.8,1.2,4,1,4.1,1.1
		c1.2,0.2,2.3,0.1,3-0.9C7.2,0,7.6,0,7.6,0c1,1.2,2.3,1.3,3.8,1.2c-1.3,1-2,2.3-2.4,3.7C8.9,5.3,8.6,5.8,9,6.1c0.3,0.3,0.7,0,1-0.1
		c1.4-0.5,2.7-1,3.6-2.5c0.2,0.4,0.4,0.6,0.4,0.8c-0.4,1.1-0.2,2,0.8,2.8c0.5,0.4,0.2,1-0.2,1.3c-0.6,0.5-1.1,1-0.6,1.9
		c0.2,0.4,0,0.8-0.4,1.2c-1-1.4-2.4-2-3.9-2.5c-0.8-0.3-1,0-0.8,0.8c0.4,1.3,0.9,2.5,1.9,3.4c0.2,0.2,0.6,0.2,0.5,0.6
		c-0.1,0.3-0.6,0.4-0.8,0.3c-1-0.5-1.6,0-2.3,0.7c-0.4,0.5-1,0.4-1.3-0.1c-0.6-0.8-1.2-1.2-2.2-0.7c-0.3,0.1-0.7,0-1-0.4
		C4.9,12.7,5.5,11.4,6,10c0.1-0.4,0.5-0.8,0.1-1.1c-0.3-0.3-0.7,0-1,0.1C3.6,9.4,2.3,10,1.5,11.3C1.2,11.2,1,11,1.1,10.7
		c0.3-1.1,0.2-2-0.8-2.8c-0.5-0.4-0.1-1,0.3-1.3c0.7-0.5,1.1-1,0.6-1.9C0.9,4.4,1,3.9,1.5,3.6"/>
</g>
</svg>
