<?xml version="1.0" encoding="utf-8"?>
<!-- Generator: Adobe Illustrator 24.1.0, SVG Export Plug-In . SVG Version: 6.00 Build 0)  -->
<svg version="1.1" id="Layer_1" xmlns="http://www.w3.org/2000/svg" xmlns:xlink="http://www.w3.org/1999/xlink" x="0px" y="0px"
	 viewBox="0 0 264 88" style="enable-background:new 0 0 264 88;" xml:space="preserve">
<style type="text/css">
	.st0{display:none;fill-rule:evenodd;clip-rule:evenodd;fill:#FFFFFF;}
	.st1{fill-rule:evenodd;clip-rule:evenodd;fill:#666666;}
	.st2{fill:#FFFFFF;}
	.st3{font-family:'Helvetica';}
	.st4{font-size:11px;}
	.st5{display:none;fill-rule:evenodd;clip-rule:evenodd;fill:#666666;}
	.st6{fill-rule:evenodd;clip-rule:evenodd;fill:#FFFFFF;}
	.st7{fill:none;stroke:#FFFFFF;stroke-width:1.5;}
</style>
<g>
	<g>
		<path id="Shape" class="st0" d="M67,59.5v3.8c-6.3,0.8-9.2,5.8-10,9.7c2.2-2.8,5.6-5.1,10-5.1v3.6l6-5.9L67,59.5z"/>
		<g>
			<path id="Shape_1_" class="st1" d="M13,29v-5h2v3h3v2H13z M13,15h5v2h-3v3h-2V15z M31,15v5h-2v-3h-3v-2H31z M31,29h-5v-2h3v-3h2
				V29z"/>
		</g>
		<g>
			<path class="st1" d="M62,24v5h-2v-3h-3v-2H62z M62,20h-5v-2h3v-3h2V20z M70,20v-5h2v3h3v2H70z M70,24h5v2h-3v3h-2V24z"/>
		</g>
		<path class="st0" d="M20.6,66l-5.7-5.7l1.4-1.4l5.7,5.7l5.7-5.7l1.4,1.4L23.4,66l5.7,5.7l-1.4,1.4L22,67.4l-5.7,5.7l-1.4-1.4
			L20.6,66z"/>
		<path class="st0" d="M111.8,65l-1.8-1.5l3-3.5h-10v-2h10l-3-3.5l1.8-1.5l5.2,6L111.8,65z"/>
		<g>
			<text transform="matrix(1 0 0 1 17.3656 63.7101)" class="st2 st3 st4">1</text>
			<path class="st1" d="M14.4,58.3l13.4,13.4l-1.4,1.4L13,59.7L14.4,58.3z"/>
			<path class="st1" d="M27.8,59.7L14.4,73.1L13,71.7l13.4-13.4L27.8,59.7z"/>
		</g>
		<path class="st0" d="M152.2,65l1.8-1.5l-3-3.5h10v-2h-10l3-3.5l-1.8-1.5l-5.2,6L152.2,65z"/>
		<path class="st5" d="M150.5,54.5c0.8,0.7-0.2,1.6-0.5,2.2c-0.5,1-0.5,1-0.7,1.2c-0.2,0.3-0.5,0.7-0.5,1c1-0.3,2.5-0.9,3.4-0.9
			c1.8-0.1,2.4-0.1,4.9,0c1.3,0,2.9,0.3,4.2,0.5c2,0.3,4,0.6,6,0.8c1.1,0.1,2.3,0,3.4,0c0.7,0,1.4,0,2.1,0c1.1-0.1,2.1-0.1,3.2-0.3
			c0.9-0.1,1.1,0.2,0.8,1.2c-1.7,0.1-3.4,0.3-5.1,0.4c-0.8,0.1-1.6,0.2-2.4,0.2c-1.3,0-2.5-0.2-3.7-0.3c-0.3,0-0.6-0.1-0.9-0.1
			c-2.3-0.3-4.6-0.5-6.9-0.8c-2.4-0.3-4.7-0.4-7.1,0.3c-0.2,0.1-0.3,0.2-0.6,0.4c0.4,0.2,0.5,1.3,0.6,1.5c0.7,1,0.7,1.3,0.7,2.9
			c-1,0.2-1.5-0.9-2.2-1.8c-0.2-0.3-0.8-0.9-0.9-1c-0.6-0.8-1.5-1.5-1.5-2.1c0-0.5,0.2-1.6,1.1-2.8c1.2-1.7,1.2-1.4,1.6-1.7
			L150.5,54.5z"/>
		<path class="st5" d="M113.4,63.9c-0.8-0.7,0.2-1.6,0.5-2.2c0.5-1,0.5-1,0.7-1.2c0.2-0.3,0.5-0.7,0.5-1c-1,0.3-2.5,0.9-3.4,0.9
			c-1.8,0.1-2.4,0.1-4.9,0c-1.3,0-2.9-0.3-4.2-0.5c-2-0.3-4-0.6-6-0.8c-1.1-0.1-2.3,0-3.4,0c-0.7,0-1.4,0-2.1,0
			c-1.1,0.1-2.1,0.1-3.2,0.3c-0.9,0.1-1.1-0.2-0.8-1.2c1.7-0.1,3.4-0.3,5.1-0.4c0.8-0.1,1.6-0.2,2.4-0.2c1.3,0,2.5,0.2,3.7,0.3
			c0.3,0,0.6,0.1,0.9,0.1c2.3,0.3,4.6,0.5,6.9,0.8c2.4,0.3,4.7,0.4,7.1-0.3c0.2-0.1,0.3-0.2,0.6-0.4c-0.4-0.2-0.5-1.3-0.6-1.5
			c-0.7-1-0.7-1.3-0.7-2.9c1-0.2,1.5,0.9,2.2,1.8c0.2,0.3,0.8,0.9,0.9,1c0.6,0.8,1.5,1.5,1.5,2.1c0,0.5-0.2,1.6-1.1,2.8
			c-1.2,1.7-1.2,1.4-1.6,1.7L113.4,63.9z"/>
		<g>
			<path id="Rectangle-11" class="st6" d="M161,28.5l-3.2-3.2l-1.4,1.4l3.2,3.2L161,28.5z"/>
			<path id="Oval-1" class="st7" d="M152.5,27c3,0,5.5-2.5,5.5-5.5s-2.5-5.5-5.5-5.5s-5.5,2.5-5.5,5.5S149.5,27,152.5,27z"/>
			<path class="st6" d="M150,21h5v1h-5V21z"/>
		</g>
		<g>
			<path class="st6" d="M117,28.5l-1.4,1.4l-3.2-3.2l1.4-1.4L117,28.5z"/>
			<path class="st7" d="M108.5,27c3,0,5.5-2.5,5.5-5.5s-2.5-5.5-5.5-5.5s-5.5,2.5-5.5,5.5S105.5,27,108.5,27z"/>
			<path class="st6" d="M106,21h5v1h-5V21z"/>
			<path class="st6" d="M109,19l-0.1,5l-1,0l0.1-5L109,19z"/>
		</g>
	</g>
</g>
</svg>
