<svg xmlns="http://www.w3.org/2000/svg" width="30" height="10" viewBox="0 0 30 10">
    <path fill="#666" fill-rule="evenodd" d="M3.546 0c.824.718-.15 1.64-.48 2.238-.537.975-.537.975-.723 1.221-.197.263-.458.669-.515 1.008 1.033-.342 2.477-.852 3.429-.931 1.786-.15 2.44-.077 4.89 0 1.306.04 2.913.28 4.21.457 1.999.275 3.997.564 6.004.753 1.13.106 2.275.025 3.414.028.714.002 1.43.042 2.142-.001 1.058-.066 2.12-.134 3.164-.306.866-.141 1.057.19.832 1.18-1.686.135-3.41.267-5.13.413-.8.067-1.602.249-2.397.223-1.251-.04-2.498-.21-3.746-.332-.286-.029-.567-.1-.852-.135-2.315-.274-4.635-.509-6.944-.826-2.38-.327-4.74-.423-7.074.295-.17.052-.315.188-.604.366.404.208.467 1.264.604 1.458.74 1.043.74 1.287.74 2.858-1.001.239-1.486-.87-2.167-1.815-.189-.262-.78-.887-.887-1.043C.89 6.283 0 5.577 0 4.989c0-.522.231-1.6 1.124-2.843C2.344.448 2.344.712 2.702.448L3.546 0z"/>
</svg>
